{
	"asset":{
		"generator":"Khronos glTF Blender I/O v4.1.62",
		"version":"2.0"
	},
	"scene":0,
	"scenes":[
		{
			"name":"Scene",
			"nodes":[
				0,
				1,
				2,
				3
			]
		}
	],
	"nodes":[
		{
			"mesh":0,
			"name":"Head",
			"scale":[
				1,
				0.89778071641922,
				1.3386623859405518
			],
			"translation":[
				0,
				4.216379642486572,
				0
			]
		},
		{
			"mesh":1,
			"name":"Bolt",
			"scale":[
				0.5294042825698853,
				0.5294042825698853,
				0.5294042825698853
			],
			"translation":[
				0,
				5.186293601989746,
				0
			]
		},
		{
			"mesh":2,
			"name":"Eyes",
			"rotation":[
				0,
				0,
				-0.7071068286895752,
				0.7071068286895752
			],
			"scale":[
				0.12000001966953278,
				1,
				0.24000000953674316
			],
			"translation":[
				1.1452257633209229,
				4.279256343841553,
				0.5842434167861938
			]
		},
		{
			"mesh":3,
			"name":"Eyes.001",
			"rotation":[
				-0.7071068286895752,
				0.7071068286895752,
				0,
				3.090862321641907e-08
			],
			"scale":[
				0.12000001966953278,
				1,
				0.24000000953674316
			],
			"translation":[
				1.1452257633209229,
				4.280879974365234,
				-0.582043468952179
			]
		}
	],
	"materials":[
		{
			"doubleSided":true,
			"name":"Material.001",
			"pbrMetallicRoughness":{
				"baseColorFactor":[
					0.1328529268503189,
					0.14101828634738922,
					0.21401570737361908,
					1
				],
				"metallicFactor":0,
				"roughnessFactor":0.5
			}
		},
		{
			"doubleSided":true,
			"name":"Material.002",
			"pbrMetallicRoughness":{
				"baseColorFactor":[
					0.10012540966272354,
					0.10012540966272354,
					0.10012540966272354,
					1
				],
				"metallicFactor":0,
				"roughnessFactor":0.5
			}
		},
		{
			"doubleSided":true,
			"name":"\u30de\u30c6\u30ea\u30a2\u30eb",
			"pbrMetallicRoughness":{
				"metallicFactor":0,
				"roughnessFactor":0.5
			}
		}
	],
	"meshes":[
		{
			"name":"Cube.002",
			"primitives":[
				{
					"attributes":{
						"POSITION":0,
						"NORMAL":1,
						"TEXCOORD_0":2
					},
					"indices":3,
					"material":0
				}
			]
		},
		{
			"name":"Cylinder.002",
			"primitives":[
				{
					"attributes":{
						"POSITION":4,
						"NORMAL":5,
						"TEXCOORD_0":6
					},
					"indices":7,
					"material":1
				}
			]
		},
		{
			"name":"\u5e73\u9762",
			"primitives":[
				{
					"attributes":{
						"POSITION":8,
						"NORMAL":9,
						"TEXCOORD_0":10
					},
					"indices":11,
					"material":2
				}
			]
		},
		{
			"name":"\u5e73\u9762.001",
			"primitives":[
				{
					"attributes":{
						"POSITION":12,
						"NORMAL":13,
						"TEXCOORD_0":14
					},
					"indices":11,
					"material":2
				}
			]
		}
	],
	"accessors":[
		{
			"bufferView":0,
			"componentType":5126,
			"count":125,
			"max":[
				1.1263614892959595,
				1.1315152645111084,
				1.1263614892959595
			],
			"min":[
				-1.1263614892959595,
				-0.9197370409965515,
				-1.1263614892959595
			],
			"type":"VEC3"
		},
		{
			"bufferView":1,
			"componentType":5126,
			"count":125,
			"type":"VEC3"
		},
		{
			"bufferView":2,
			"componentType":5126,
			"count":125,
			"type":"VEC2"
		},
		{
			"bufferView":3,
			"componentType":5123,
			"count":576,
			"type":"SCALAR"
		},
		{
			"bufferView":4,
			"componentType":5126,
			"count":268,
			"max":[
				1.9833612442016602,
				1.820974588394165,
				1.7176411151885986
			],
			"min":[
				-1.9833611249923706,
				-0.9449999928474426,
				-1.7176411151885986
			],
			"type":"VEC3"
		},
		{
			"bufferView":5,
			"componentType":5126,
			"count":268,
			"type":"VEC3"
		},
		{
			"bufferView":6,
			"componentType":5126,
			"count":268,
			"type":"VEC2"
		},
		{
			"bufferView":7,
			"componentType":5123,
			"count":768,
			"type":"SCALAR"
		},
		{
			"bufferView":8,
			"componentType":5126,
			"count":4,
			"max":[
				0.36335813999176025,
				2.155333689302097e-10,
				1.0557230710983276
			],
			"min":[
				-1.1391059160232544,
				-4.274863130149242e-09,
				-0.9700087308883667
			],
			"type":"VEC3"
		},
		{
			"bufferView":9,
			"componentType":5126,
			"count":4,
			"type":"VEC3"
		},
		{
			"bufferView":10,
			"componentType":5126,
			"count":4,
			"type":"VEC2"
		},
		{
			"bufferView":11,
			"componentType":5123,
			"count":6,
			"type":"SCALAR"
		},
		{
			"bufferView":12,
			"componentType":5126,
			"count":4,
			"max":[
				0.36335813999176025,
				2.155333689302097e-10,
				1.0557230710983276
			],
			"min":[
				-1.1391059160232544,
				-4.274863130149242e-09,
				-0.9700087308883667
			],
			"type":"VEC3"
		},
		{
			"bufferView":13,
			"componentType":5126,
			"count":4,
			"type":"VEC3"
		},
		{
			"bufferView":14,
			"componentType":5126,
			"count":4,
			"type":"VEC2"
		}
	],
	"bufferViews":[
		{
			"buffer":0,
			"byteLength":1500,
			"byteOffset":0,
			"target":34962
		},
		{
			"buffer":0,
			"byteLength":1500,
			"byteOffset":1500,
			"target":34962
		},
		{
			"buffer":0,
			"byteLength":1000,
			"byteOffset":3000,
			"target":34962
		},
		{
			"buffer":0,
			"byteLength":1152,
			"byteOffset":4000,
			"target":34963
		},
		{
			"buffer":0,
			"byteLength":3216,
			"byteOffset":5152,
			"target":34962
		},
		{
			"buffer":0,
			"byteLength":3216,
			"byteOffset":8368,
			"target":34962
		},
		{
			"buffer":0,
			"byteLength":2144,
			"byteOffset":11584,
			"target":34962
		},
		{
			"buffer":0,
			"byteLength":1536,
			"byteOffset":13728,
			"target":34963
		},
		{
			"buffer":0,
			"byteLength":48,
			"byteOffset":15264,
			"target":34962
		},
		{
			"buffer":0,
			"byteLength":48,
			"byteOffset":15312,
			"target":34962
		},
		{
			"buffer":0,
			"byteLength":32,
			"byteOffset":15360,
			"target":34962
		},
		{
			"buffer":0,
			"byteLength":12,
			"byteOffset":15392,
			"target":34963
		},
		{
			"buffer":0,
			"byteLength":48,
			"byteOffset":15404,
			"target":34962
		},
		{
			"buffer":0,
			"byteLength":48,
			"byteOffset":15452,
			"target":34962
		},
		{
			"buffer":0,
			"byteLength":32,
			"byteOffset":15500,
			"target":34962
		}
	],
	"buffers":[
		{
			"byteLength":15532,
			"uri":"head.bin"
		}
	]
}
