{
	"asset":{
		"generator":"Khronos glTF Blender I/O v4.1.62",
		"version":"2.0"
	},
	"extensionsUsed":[
		"KHR_materials_specular",
		"KHR_materials_ior"
	],
	"scene":0,
	"scenes":[
		{
			"name":"Scene",
			"nodes":[
				7
			]
		}
	],
	"nodes":[
		{
			"name":"head",
			"translation":[
				0,
				1.5021438598632812,
				0
			]
		},
		{
			"name":"tail_tip",
			"rotation":[
				0.27593767642974854,
				0.010570372454822063,
				-0.5438612103462219,
				0.7924403548240662
			],
			"scale":[
				0.9999999403953552,
				0.9999998807907104,
				0.9999998211860657
			],
			"translation":[
				-4.470348358154297e-08,
				0.758796215057373,
				5.960464477539063e-08
			]
		},
		{
			"children":[
				1
			],
			"name":"tail_middle",
			"rotation":[
				0.448014497756958,
				0.06618010252714157,
				0.669337809085846,
				0.5889738202095032
			],
			"translation":[
				2.2351741790771484e-08,
				0.6519870758056641,
				2.2351741790771484e-08
			]
		},
		{
			"children":[
				2
			],
			"name":"tail_base",
			"rotation":[
				-0.4841354191303253,
				0.09301744401454926,
				0.18838605284690857,
				0.8493947386741638
			],
			"scale":[
				1,
				1,
				0.9999999403953552
			],
			"translation":[
				-0.12744291126728058,
				0.11760640144348145,
				-0.7159953713417053
			]
		},
		{
			"children":[
				0,
				3
			],
			"name":"body",
			"rotation":[
				0,
				1.1920928955078125e-07,
				0,
				1
			]
		},
		{
			"name":"neutral_bone",
			"rotation":[
				-0.7071067690849304,
				0,
				0,
				0.7071067690849304
			]
		},
		{
			"mesh":0,
			"name":"NurbsPath",
			"skin":0
		},
		{
			"children":[
				6,
				4,
				5
			],
			"name":"Armature"
		}
	],
	"animations":[
		{
			"channels":[
				{
					"sampler":0,
					"target":{
						"node":4,
						"path":"translation"
					}
				},
				{
					"sampler":1,
					"target":{
						"node":4,
						"path":"rotation"
					}
				},
				{
					"sampler":2,
					"target":{
						"node":4,
						"path":"scale"
					}
				},
				{
					"sampler":3,
					"target":{
						"node":0,
						"path":"translation"
					}
				},
				{
					"sampler":4,
					"target":{
						"node":0,
						"path":"rotation"
					}
				},
				{
					"sampler":5,
					"target":{
						"node":0,
						"path":"scale"
					}
				},
				{
					"sampler":6,
					"target":{
						"node":3,
						"path":"translation"
					}
				},
				{
					"sampler":7,
					"target":{
						"node":3,
						"path":"rotation"
					}
				},
				{
					"sampler":8,
					"target":{
						"node":3,
						"path":"scale"
					}
				},
				{
					"sampler":9,
					"target":{
						"node":2,
						"path":"translation"
					}
				},
				{
					"sampler":10,
					"target":{
						"node":2,
						"path":"rotation"
					}
				},
				{
					"sampler":11,
					"target":{
						"node":2,
						"path":"scale"
					}
				},
				{
					"sampler":12,
					"target":{
						"node":1,
						"path":"translation"
					}
				},
				{
					"sampler":13,
					"target":{
						"node":1,
						"path":"rotation"
					}
				},
				{
					"sampler":14,
					"target":{
						"node":1,
						"path":"scale"
					}
				}
			],
			"name":"ArmatureAction",
			"samplers":[
				{
					"input":13,
					"interpolation":"LINEAR",
					"output":14
				},
				{
					"input":15,
					"interpolation":"STEP",
					"output":16
				},
				{
					"input":15,
					"interpolation":"STEP",
					"output":17
				},
				{
					"input":15,
					"interpolation":"STEP",
					"output":18
				},
				{
					"input":13,
					"interpolation":"LINEAR",
					"output":19
				},
				{
					"input":15,
					"interpolation":"STEP",
					"output":20
				},
				{
					"input":15,
					"interpolation":"STEP",
					"output":21
				},
				{
					"input":15,
					"interpolation":"STEP",
					"output":22
				},
				{
					"input":15,
					"interpolation":"STEP",
					"output":23
				},
				{
					"input":15,
					"interpolation":"STEP",
					"output":24
				},
				{
					"input":13,
					"interpolation":"LINEAR",
					"output":25
				},
				{
					"input":15,
					"interpolation":"STEP",
					"output":26
				},
				{
					"input":15,
					"interpolation":"STEP",
					"output":27
				},
				{
					"input":13,
					"interpolation":"LINEAR",
					"output":28
				},
				{
					"input":15,
					"interpolation":"STEP",
					"output":29
				}
			]
		}
	],
	"materials":[
		{
			"doubleSided":true,
			"extensions":{
				"KHR_materials_specular":{
					"specularFactor":0
				},
				"KHR_materials_ior":{
					"ior":1.4500000476837158
				}
			},
			"name":"Material",
			"pbrMetallicRoughness":{
				"baseColorTexture":{
					"index":0
				},
				"metallicFactor":0
			}
		},
		{
			"alphaMode":"BLEND",
			"doubleSided":true,
			"emissiveFactor":[
				1,
				0.6429007649421692,
				0.006488860584795475
			],
			"name":"cateye",
			"pbrMetallicRoughness":{
				"metallicFactor":0,
				"roughnessFactor":0.5
			}
		}
	],
	"meshes":[
		{
			"name":"NurbsPath",
			"primitives":[
				{
					"attributes":{
						"POSITION":0,
						"NORMAL":1,
						"TEXCOORD_0":2,
						"JOINTS_0":3,
						"WEIGHTS_0":4
					},
					"indices":5,
					"material":0
				},
				{
					"attributes":{
						"POSITION":6,
						"NORMAL":7,
						"TEXCOORD_0":8,
						"JOINTS_0":9,
						"WEIGHTS_0":10
					},
					"indices":11,
					"material":1
				}
			]
		}
	],
	"textures":[
		{
			"sampler":0,
			"source":0
		}
	],
	"images":[
		{
			"mimeType":"image/png",
			"name":"hatUV",
			"uri":"hatUV.png"
		}
	],
	"skins":[
		{
			"inverseBindMatrices":12,
			"joints":[
				4,
				0,
				3,
				2,
				1,
				5
			],
			"name":"Armature"
		}
	],
	"accessors":[
		{
			"bufferView":0,
			"componentType":5126,
			"count":106,
			"max":[
				0.9080392718315125,
				3.501943349838257,
				0.9960174560546875
			],
			"min":[
				-1.1735013723373413,
				-0.08565328270196915,
				-0.9581856727600098
			],
			"type":"VEC3"
		},
		{
			"bufferView":1,
			"componentType":5126,
			"count":106,
			"type":"VEC3"
		},
		{
			"bufferView":2,
			"componentType":5126,
			"count":106,
			"type":"VEC2"
		},
		{
			"bufferView":3,
			"componentType":5121,
			"count":106,
			"type":"VEC4"
		},
		{
			"bufferView":4,
			"componentType":5126,
			"count":106,
			"type":"VEC4"
		},
		{
			"bufferView":5,
			"componentType":5123,
			"count":288,
			"type":"SCALAR"
		},
		{
			"bufferView":6,
			"componentType":5126,
			"count":8,
			"max":[
				0.2114599645137787,
				2.1167330741882324,
				-0.5298492908477783
			],
			"min":[
				-0.3186533451080322,
				1.882674217224121,
				-0.685461699962616
			],
			"type":"VEC3"
		},
		{
			"bufferView":7,
			"componentType":5126,
			"count":8,
			"type":"VEC3"
		},
		{
			"bufferView":8,
			"componentType":5126,
			"count":8,
			"type":"VEC2"
		},
		{
			"bufferView":9,
			"componentType":5121,
			"count":8,
			"type":"VEC4"
		},
		{
			"bufferView":10,
			"componentType":5126,
			"count":8,
			"type":"VEC4"
		},
		{
			"bufferView":11,
			"componentType":5123,
			"count":12,
			"type":"SCALAR"
		},
		{
			"bufferView":12,
			"componentType":5126,
			"count":6,
			"type":"MAT4"
		},
		{
			"bufferView":13,
			"componentType":5126,
			"count":241,
			"max":[
				10
			],
			"min":[
				0
			],
			"type":"SCALAR"
		},
		{
			"bufferView":14,
			"componentType":5126,
			"count":241,
			"type":"VEC3"
		},
		{
			"bufferView":15,
			"componentType":5126,
			"count":2,
			"max":[
				10
			],
			"min":[
				0
			],
			"type":"SCALAR"
		},
		{
			"bufferView":16,
			"componentType":5126,
			"count":2,
			"type":"VEC4"
		},
		{
			"bufferView":17,
			"componentType":5126,
			"count":2,
			"type":"VEC3"
		},
		{
			"bufferView":18,
			"componentType":5126,
			"count":2,
			"type":"VEC3"
		},
		{
			"bufferView":19,
			"componentType":5126,
			"count":241,
			"type":"VEC4"
		},
		{
			"bufferView":20,
			"componentType":5126,
			"count":2,
			"type":"VEC3"
		},
		{
			"bufferView":21,
			"componentType":5126,
			"count":2,
			"type":"VEC3"
		},
		{
			"bufferView":22,
			"componentType":5126,
			"count":2,
			"type":"VEC4"
		},
		{
			"bufferView":23,
			"componentType":5126,
			"count":2,
			"type":"VEC3"
		},
		{
			"bufferView":24,
			"componentType":5126,
			"count":2,
			"type":"VEC3"
		},
		{
			"bufferView":25,
			"componentType":5126,
			"count":241,
			"type":"VEC4"
		},
		{
			"bufferView":26,
			"componentType":5126,
			"count":2,
			"type":"VEC3"
		},
		{
			"bufferView":27,
			"componentType":5126,
			"count":2,
			"type":"VEC3"
		},
		{
			"bufferView":28,
			"componentType":5126,
			"count":241,
			"type":"VEC4"
		},
		{
			"bufferView":29,
			"componentType":5126,
			"count":2,
			"type":"VEC3"
		}
	],
	"bufferViews":[
		{
			"buffer":0,
			"byteLength":1272,
			"byteOffset":0,
			"target":34962
		},
		{
			"buffer":0,
			"byteLength":1272,
			"byteOffset":1272,
			"target":34962
		},
		{
			"buffer":0,
			"byteLength":848,
			"byteOffset":2544,
			"target":34962
		},
		{
			"buffer":0,
			"byteLength":424,
			"byteOffset":3392,
			"target":34962
		},
		{
			"buffer":0,
			"byteLength":1696,
			"byteOffset":3816,
			"target":34962
		},
		{
			"buffer":0,
			"byteLength":576,
			"byteOffset":5512,
			"target":34963
		},
		{
			"buffer":0,
			"byteLength":96,
			"byteOffset":6088,
			"target":34962
		},
		{
			"buffer":0,
			"byteLength":96,
			"byteOffset":6184,
			"target":34962
		},
		{
			"buffer":0,
			"byteLength":64,
			"byteOffset":6280,
			"target":34962
		},
		{
			"buffer":0,
			"byteLength":32,
			"byteOffset":6344,
			"target":34962
		},
		{
			"buffer":0,
			"byteLength":128,
			"byteOffset":6376,
			"target":34962
		},
		{
			"buffer":0,
			"byteLength":24,
			"byteOffset":6504,
			"target":34963
		},
		{
			"buffer":0,
			"byteLength":384,
			"byteOffset":6528
		},
		{
			"buffer":0,
			"byteLength":964,
			"byteOffset":6912
		},
		{
			"buffer":0,
			"byteLength":2892,
			"byteOffset":7876
		},
		{
			"buffer":0,
			"byteLength":8,
			"byteOffset":10768
		},
		{
			"buffer":0,
			"byteLength":32,
			"byteOffset":10776
		},
		{
			"buffer":0,
			"byteLength":24,
			"byteOffset":10808
		},
		{
			"buffer":0,
			"byteLength":24,
			"byteOffset":10832
		},
		{
			"buffer":0,
			"byteLength":3856,
			"byteOffset":10856
		},
		{
			"buffer":0,
			"byteLength":24,
			"byteOffset":14712
		},
		{
			"buffer":0,
			"byteLength":24,
			"byteOffset":14736
		},
		{
			"buffer":0,
			"byteLength":32,
			"byteOffset":14760
		},
		{
			"buffer":0,
			"byteLength":24,
			"byteOffset":14792
		},
		{
			"buffer":0,
			"byteLength":24,
			"byteOffset":14816
		},
		{
			"buffer":0,
			"byteLength":3856,
			"byteOffset":14840
		},
		{
			"buffer":0,
			"byteLength":24,
			"byteOffset":18696
		},
		{
			"buffer":0,
			"byteLength":24,
			"byteOffset":18720
		},
		{
			"buffer":0,
			"byteLength":3856,
			"byteOffset":18744
		},
		{
			"buffer":0,
			"byteLength":24,
			"byteOffset":22600
		}
	],
	"samplers":[
		{
			"magFilter":9728,
			"minFilter":9984
		}
	],
	"buffers":[
		{
			"byteLength":22624,
			"uri":"player1.bin"
		}
	]
}
