{
	"asset":{
		"generator":"Khronos glTF Blender I/O v4.1.62",
		"version":"2.0"
	},
	"scene":0,
	"scenes":[
		{
			"name":"Scene",
			"nodes":[
				0,
				2,
				3
			]
		}
	],
	"nodes":[
		{
			"mesh":0,
			"name":"\u524d",
			"scale":[
				0.5,
				0.5,
				0.5
			],
			"translation":[
				0,
				-1,
				-2
			]
		},
		{
			"name":"hold",
			"translation":[
				0,
				0,
				-4
			]
		},
		{
			"children":[
				1
			],
			"mesh":1,
			"name":"\u4e2d\u5fc3",
			"scale":[
				0.6898789405822754,
				1.1470328569412231,
				0.5
			],
			"translation":[
				0,
				1,
				0
			]
		},
		{
			"mesh":2,
			"name":"\u982d",
			"scale":[
				0.699999988079071,
				0.699999988079071,
				0.699999988079071
			],
			"translation":[
				0,
				2.77335524559021,
				0
			]
		}
	],
	"meshes":[
		{
			"name":"\u7403.003",
			"primitives":[
				{
					"attributes":{
						"POSITION":0,
						"NORMAL":1,
						"TEXCOORD_0":2
					},
					"indices":3
				}
			]
		},
		{
			"name":"\u7403.004",
			"primitives":[
				{
					"attributes":{
						"POSITION":4,
						"NORMAL":5,
						"TEXCOORD_0":6
					},
					"indices":3
				}
			]
		},
		{
			"name":"\u7403.005",
			"primitives":[
				{
					"attributes":{
						"POSITION":7,
						"NORMAL":8,
						"TEXCOORD_0":9
					},
					"indices":10
				}
			]
		}
	],
	"accessors":[
		{
			"bufferView":0,
			"componentType":5126,
			"count":559,
			"max":[
				0.9999997019767761,
				1,
				0.9999993443489075
			],
			"min":[
				-0.9999990463256836,
				-1,
				-1
			],
			"type":"VEC3"
		},
		{
			"bufferView":1,
			"componentType":5126,
			"count":559,
			"type":"VEC3"
		},
		{
			"bufferView":2,
			"componentType":5126,
			"count":559,
			"type":"VEC2"
		},
		{
			"bufferView":3,
			"componentType":5123,
			"count":2880,
			"type":"SCALAR"
		},
		{
			"bufferView":4,
			"componentType":5126,
			"count":559,
			"max":[
				0.9999997019767761,
				1,
				0.9999993443489075
			],
			"min":[
				-0.9999990463256836,
				-1,
				-1
			],
			"type":"VEC3"
		},
		{
			"bufferView":5,
			"componentType":5126,
			"count":559,
			"type":"VEC3"
		},
		{
			"bufferView":6,
			"componentType":5126,
			"count":559,
			"type":"VEC2"
		},
		{
			"bufferView":7,
			"componentType":5126,
			"count":559,
			"max":[
				0.9999997019767761,
				1,
				0.9999993443489075
			],
			"min":[
				-0.9999990463256836,
				-1,
				-1
			],
			"type":"VEC3"
		},
		{
			"bufferView":8,
			"componentType":5126,
			"count":559,
			"type":"VEC3"
		},
		{
			"bufferView":9,
			"componentType":5126,
			"count":559,
			"type":"VEC2"
		},
		{
			"bufferView":10,
			"componentType":5123,
			"count":2880,
			"type":"SCALAR"
		}
	],
	"bufferViews":[
		{
			"buffer":0,
			"byteLength":6708,
			"byteOffset":0,
			"target":34962
		},
		{
			"buffer":0,
			"byteLength":6708,
			"byteOffset":6708,
			"target":34962
		},
		{
			"buffer":0,
			"byteLength":4472,
			"byteOffset":13416,
			"target":34962
		},
		{
			"buffer":0,
			"byteLength":5760,
			"byteOffset":17888,
			"target":34963
		},
		{
			"buffer":0,
			"byteLength":6708,
			"byteOffset":23648,
			"target":34962
		},
		{
			"buffer":0,
			"byteLength":6708,
			"byteOffset":30356,
			"target":34962
		},
		{
			"buffer":0,
			"byteLength":4472,
			"byteOffset":37064,
			"target":34962
		},
		{
			"buffer":0,
			"byteLength":6708,
			"byteOffset":41536,
			"target":34962
		},
		{
			"buffer":0,
			"byteLength":6708,
			"byteOffset":48244,
			"target":34962
		},
		{
			"buffer":0,
			"byteLength":4472,
			"byteOffset":54952,
			"target":34962
		},
		{
			"buffer":0,
			"byteLength":5760,
			"byteOffset":59424,
			"target":34963
		}
	],
	"buffers":[
		{
			"byteLength":65184,
			"uri":"Player.bin"
		}
	]
}
