{
	"asset":{
		"generator":"Khronos glTF Blender I/O v4.1.62",
		"version":"2.0"
	},
	"scene":0,
	"scenes":[
		{
			"name":"Scene",
			"nodes":[
				0,
				1,
				2,
				3,
				4,
				5,
				6,
				7
			]
		}
	],
	"nodes":[
		{
			"mesh":0,
			"name":"\u5186\u67f1",
			"scale":[
				1,
				0.30000001192092896,
				1
			],
			"translation":[
				0,
				1.0366816520690918,
				0
			]
		},
		{
			"mesh":1,
			"name":"\u5186\u67f1.001",
			"rotation":[
				0.7071068286895752,
				0,
				0,
				0.7071068286895752
			],
			"scale":[
				0.30000001192092896,
				0.07999999821186066,
				0.20000000298023224
			],
			"translation":[
				0,
				0.7999999523162842,
				-0.5
			]
		},
		{
			"mesh":2,
			"name":"\u5186\u67f1.002",
			"rotation":[
				0.7071068286895752,
				0,
				0,
				0.7071068286895752
			],
			"scale":[
				0.30000001192092896,
				0.07999999821186066,
				0.20000000298023224
			],
			"translation":[
				0,
				0.7999999523162842,
				0.5
			]
		},
		{
			"mesh":3,
			"name":"\u5186",
			"scale":[
				0.8999999761581421,
				0.8999999761581421,
				0.8999999761581421
			],
			"translation":[
				0,
				1.3381280899047852,
				0
			]
		},
		{
			"mesh":4,
			"name":"\u5e73\u9762.001",
			"scale":[
				0.059999994933605194,
				0.30000001192092896,
				0.029999999329447746
			],
			"translation":[
				-0.321493536233902,
				1.3710005283355713,
				-0.04969043657183647
			]
		},
		{
			"mesh":5,
			"name":"\u5e73\u9762.003",
			"rotation":[
				0,
				0.7071068286895752,
				0,
				0.7071068286895752
			],
			"scale":[
				0.029999999329447746,
				0.30000001192092896,
				0.029999999329447746
			],
			"translation":[
				-0.44996243715286255,
				1.3710005283355713,
				0.005633078515529633
			]
		},
		{
			"mesh":6,
			"name":"\u5186.001",
			"scale":[
				0.15000000596046448,
				0.30000001192092896,
				0.15000000596046448
			],
			"translation":[
				-0.1778547167778015,
				1.199804425239563,
				0
			]
		},
		{
			"mesh":7,
			"name":"\u5186.002",
			"scale":[
				0.30000001192092896,
				0.30000001192092896,
				0.30000001192092896
			],
			"translation":[
				0,
				1.1910004615783691,
				0
			]
		}
	],
	"materials":[
		{
			"doubleSided":true,
			"name":"\u30de\u30c6\u30ea\u30a2\u30eb",
			"pbrMetallicRoughness":{
				"baseColorFactor":[
					0,
					0,
					0,
					1
				],
				"metallicFactor":0,
				"roughnessFactor":0.5
			}
		},
		{
			"doubleSided":true,
			"name":"\u30de\u30c6\u30ea\u30a2\u30eb.001",
			"pbrMetallicRoughness":{
				"baseColorFactor":[
					0.800000011920929,
					0.800000011920929,
					0.800000011920929,
					1
				],
				"metallicFactor":0,
				"roughnessFactor":0.5
			}
		},
		{
			"doubleSided":true,
			"name":"\u30de\u30c6\u30ea\u30a2\u30eb.004",
			"pbrMetallicRoughness":{
				"baseColorFactor":[
					0,
					0,
					0,
					1
				],
				"metallicFactor":0,
				"roughnessFactor":0.5
			}
		},
		{
			"doubleSided":true,
			"name":"\u30de\u30c6\u30ea\u30a2\u30eb.005",
			"pbrMetallicRoughness":{
				"baseColorFactor":[
					0,
					0,
					0,
					1
				],
				"metallicFactor":0,
				"roughnessFactor":0.5
			}
		},
		{
			"doubleSided":true,
			"name":"\u30de\u30c6\u30ea\u30a2\u30eb.006",
			"pbrMetallicRoughness":{
				"baseColorFactor":[
					0,
					0,
					0,
					1
				],
				"metallicFactor":0,
				"roughnessFactor":0.5
			}
		},
		{
			"doubleSided":true,
			"name":"\u30de\u30c6\u30ea\u30a2\u30eb.007",
			"pbrMetallicRoughness":{
				"baseColorFactor":[
					0,
					0,
					0,
					1
				],
				"metallicFactor":0,
				"roughnessFactor":0.5
			}
		}
	],
	"meshes":[
		{
			"name":"\u5186\u67f1",
			"primitives":[
				{
					"attributes":{
						"POSITION":0,
						"NORMAL":1,
						"TEXCOORD_0":2
					},
					"indices":3,
					"material":0
				}
			]
		},
		{
			"name":"\u5186\u67f1.001",
			"primitives":[
				{
					"attributes":{
						"POSITION":4,
						"NORMAL":5,
						"TEXCOORD_0":6
					},
					"indices":7
				}
			]
		},
		{
			"name":"\u5186\u67f1.002",
			"primitives":[
				{
					"attributes":{
						"POSITION":8,
						"NORMAL":9,
						"TEXCOORD_0":10
					},
					"indices":7
				}
			]
		},
		{
			"name":"\u5186",
			"primitives":[
				{
					"attributes":{
						"POSITION":11,
						"NORMAL":12,
						"TEXCOORD_0":13
					},
					"indices":14,
					"material":1
				}
			]
		},
		{
			"name":"\u5e73\u9762.002",
			"primitives":[
				{
					"attributes":{
						"POSITION":15,
						"NORMAL":16,
						"TEXCOORD_0":17
					},
					"indices":18,
					"material":2
				},
				{
					"attributes":{
						"POSITION":19,
						"NORMAL":20,
						"TEXCOORD_0":21
					},
					"indices":18,
					"material":0
				},
				{
					"attributes":{
						"POSITION":22,
						"NORMAL":23,
						"TEXCOORD_0":24
					},
					"indices":18,
					"material":3
				}
			]
		},
		{
			"name":"\u5e73\u9762.004",
			"primitives":[
				{
					"attributes":{
						"POSITION":25,
						"NORMAL":26,
						"TEXCOORD_0":27
					},
					"indices":18,
					"material":4
				}
			]
		},
		{
			"name":"\u5186.001",
			"primitives":[
				{
					"attributes":{
						"POSITION":28,
						"NORMAL":29,
						"TEXCOORD_0":30
					},
					"indices":14,
					"material":1
				}
			]
		},
		{
			"name":"\u5186.002",
			"primitives":[
				{
					"attributes":{
						"POSITION":31,
						"NORMAL":32,
						"TEXCOORD_0":33
					},
					"indices":14,
					"material":5
				}
			]
		}
	],
	"accessors":[
		{
			"bufferView":0,
			"componentType":5126,
			"count":130,
			"max":[
				1,
				1,
				1
			],
			"min":[
				-1,
				-1,
				-1
			],
			"type":"VEC3"
		},
		{
			"bufferView":1,
			"componentType":5126,
			"count":130,
			"type":"VEC3"
		},
		{
			"bufferView":2,
			"componentType":5126,
			"count":130,
			"type":"VEC2"
		},
		{
			"bufferView":3,
			"componentType":5123,
			"count":372,
			"type":"SCALAR"
		},
		{
			"bufferView":4,
			"componentType":5126,
			"count":192,
			"max":[
				1,
				1,
				1
			],
			"min":[
				-1,
				-1,
				-1
			],
			"type":"VEC3"
		},
		{
			"bufferView":5,
			"componentType":5126,
			"count":192,
			"type":"VEC3"
		},
		{
			"bufferView":6,
			"componentType":5126,
			"count":192,
			"type":"VEC2"
		},
		{
			"bufferView":7,
			"componentType":5123,
			"count":372,
			"type":"SCALAR"
		},
		{
			"bufferView":8,
			"componentType":5126,
			"count":192,
			"max":[
				1,
				1,
				1
			],
			"min":[
				-1,
				-1,
				-1
			],
			"type":"VEC3"
		},
		{
			"bufferView":9,
			"componentType":5126,
			"count":192,
			"type":"VEC3"
		},
		{
			"bufferView":10,
			"componentType":5126,
			"count":192,
			"type":"VEC2"
		},
		{
			"bufferView":11,
			"componentType":5126,
			"count":32,
			"max":[
				1,
				0,
				1
			],
			"min":[
				-1,
				0,
				-1
			],
			"type":"VEC3"
		},
		{
			"bufferView":12,
			"componentType":5126,
			"count":32,
			"type":"VEC3"
		},
		{
			"bufferView":13,
			"componentType":5126,
			"count":32,
			"type":"VEC2"
		},
		{
			"bufferView":14,
			"componentType":5123,
			"count":90,
			"type":"SCALAR"
		},
		{
			"bufferView":15,
			"componentType":5126,
			"count":4,
			"max":[
				1,
				0,
				1
			],
			"min":[
				-1,
				0,
				-1
			],
			"type":"VEC3"
		},
		{
			"bufferView":16,
			"componentType":5126,
			"count":4,
			"type":"VEC3"
		},
		{
			"bufferView":17,
			"componentType":5126,
			"count":4,
			"type":"VEC2"
		},
		{
			"bufferView":18,
			"componentType":5123,
			"count":6,
			"type":"SCALAR"
		},
		{
			"bufferView":19,
			"componentType":5126,
			"count":4,
			"max":[
				0.9985196590423584,
				0,
				2.9753596782684326
			],
			"min":[
				-0.0014803409576416016,
				0,
				0.9753596782684326
			],
			"type":"VEC3"
		},
		{
			"bufferView":20,
			"componentType":5126,
			"count":4,
			"type":"VEC3"
		},
		{
			"bufferView":21,
			"componentType":5126,
			"count":4,
			"type":"VEC2"
		},
		{
			"bufferView":22,
			"componentType":5126,
			"count":4,
			"max":[
				0.9993890523910522,
				0,
				4.957895755767822
			],
			"min":[
				-1.0006109476089478,
				0,
				2.9578957557678223
			],
			"type":"VEC3"
		},
		{
			"bufferView":23,
			"componentType":5126,
			"count":4,
			"type":"VEC3"
		},
		{
			"bufferView":24,
			"componentType":5126,
			"count":4,
			"type":"VEC2"
		},
		{
			"bufferView":25,
			"componentType":5126,
			"count":4,
			"max":[
				1,
				0,
				1
			],
			"min":[
				-1,
				0,
				-1
			],
			"type":"VEC3"
		},
		{
			"bufferView":26,
			"componentType":5126,
			"count":4,
			"type":"VEC3"
		},
		{
			"bufferView":27,
			"componentType":5126,
			"count":4,
			"type":"VEC2"
		},
		{
			"bufferView":28,
			"componentType":5126,
			"count":32,
			"max":[
				-0.2565009593963623,
				0.5609385967254639,
				1
			],
			"min":[
				-2.2565009593963623,
				0.5609385967254639,
				-1
			],
			"type":"VEC3"
		},
		{
			"bufferView":29,
			"componentType":5126,
			"count":32,
			"type":"VEC3"
		},
		{
			"bufferView":30,
			"componentType":5126,
			"count":32,
			"type":"VEC2"
		},
		{
			"bufferView":31,
			"componentType":5126,
			"count":32,
			"max":[
				-0.2565009593963623,
				0.5609385967254639,
				1
			],
			"min":[
				-2.2565009593963623,
				0.5609385967254639,
				-1
			],
			"type":"VEC3"
		},
		{
			"bufferView":32,
			"componentType":5126,
			"count":32,
			"type":"VEC3"
		},
		{
			"bufferView":33,
			"componentType":5126,
			"count":32,
			"type":"VEC2"
		}
	],
	"bufferViews":[
		{
			"buffer":0,
			"byteLength":1560,
			"byteOffset":0,
			"target":34962
		},
		{
			"buffer":0,
			"byteLength":1560,
			"byteOffset":1560,
			"target":34962
		},
		{
			"buffer":0,
			"byteLength":1040,
			"byteOffset":3120,
			"target":34962
		},
		{
			"buffer":0,
			"byteLength":744,
			"byteOffset":4160,
			"target":34963
		},
		{
			"buffer":0,
			"byteLength":2304,
			"byteOffset":4904,
			"target":34962
		},
		{
			"buffer":0,
			"byteLength":2304,
			"byteOffset":7208,
			"target":34962
		},
		{
			"buffer":0,
			"byteLength":1536,
			"byteOffset":9512,
			"target":34962
		},
		{
			"buffer":0,
			"byteLength":744,
			"byteOffset":11048,
			"target":34963
		},
		{
			"buffer":0,
			"byteLength":2304,
			"byteOffset":11792,
			"target":34962
		},
		{
			"buffer":0,
			"byteLength":2304,
			"byteOffset":14096,
			"target":34962
		},
		{
			"buffer":0,
			"byteLength":1536,
			"byteOffset":16400,
			"target":34962
		},
		{
			"buffer":0,
			"byteLength":384,
			"byteOffset":17936,
			"target":34962
		},
		{
			"buffer":0,
			"byteLength":384,
			"byteOffset":18320,
			"target":34962
		},
		{
			"buffer":0,
			"byteLength":256,
			"byteOffset":18704,
			"target":34962
		},
		{
			"buffer":0,
			"byteLength":180,
			"byteOffset":18960,
			"target":34963
		},
		{
			"buffer":0,
			"byteLength":48,
			"byteOffset":19140,
			"target":34962
		},
		{
			"buffer":0,
			"byteLength":48,
			"byteOffset":19188,
			"target":34962
		},
		{
			"buffer":0,
			"byteLength":32,
			"byteOffset":19236,
			"target":34962
		},
		{
			"buffer":0,
			"byteLength":12,
			"byteOffset":19268,
			"target":34963
		},
		{
			"buffer":0,
			"byteLength":48,
			"byteOffset":19280,
			"target":34962
		},
		{
			"buffer":0,
			"byteLength":48,
			"byteOffset":19328,
			"target":34962
		},
		{
			"buffer":0,
			"byteLength":32,
			"byteOffset":19376,
			"target":34962
		},
		{
			"buffer":0,
			"byteLength":48,
			"byteOffset":19408,
			"target":34962
		},
		{
			"buffer":0,
			"byteLength":48,
			"byteOffset":19456,
			"target":34962
		},
		{
			"buffer":0,
			"byteLength":32,
			"byteOffset":19504,
			"target":34962
		},
		{
			"buffer":0,
			"byteLength":48,
			"byteOffset":19536,
			"target":34962
		},
		{
			"buffer":0,
			"byteLength":48,
			"byteOffset":19584,
			"target":34962
		},
		{
			"buffer":0,
			"byteLength":32,
			"byteOffset":19632,
			"target":34962
		},
		{
			"buffer":0,
			"byteLength":384,
			"byteOffset":19664,
			"target":34962
		},
		{
			"buffer":0,
			"byteLength":384,
			"byteOffset":20048,
			"target":34962
		},
		{
			"buffer":0,
			"byteLength":256,
			"byteOffset":20432,
			"target":34962
		},
		{
			"buffer":0,
			"byteLength":384,
			"byteOffset":20688,
			"target":34962
		},
		{
			"buffer":0,
			"byteLength":384,
			"byteOffset":21072,
			"target":34962
		},
		{
			"buffer":0,
			"byteLength":256,
			"byteOffset":21456,
			"target":34962
		}
	],
	"buffers":[
		{
			"byteLength":21712,
			"uri":"CleanRobot.bin"
		}
	]
}
