{
	"asset":{
		"generator":"Khronos glTF Blender I/O v4.1.62",
		"version":"2.0"
	},
	"extensionsUsed":[
		"KHR_materials_specular"
	],
	"scene":0,
	"scenes":[
		{
			"name":"Scene",
			"nodes":[
				0
			]
		}
	],
	"nodes":[
		{
			"mesh":0,
			"name":"Cube_1",
			"rotation":[
				0.7071068286895752,
				0,
				0,
				0.7071068286895752
			],
			"scale":[
				0.009999999776482582,
				0.009999999776482582,
				0.009999999776482582
			]
		}
	],
	"materials":[
		{
			"doubleSided":true,
			"extensions":{
				"KHR_materials_specular":{
					"specularColorFactor":[
						2.0,
						2.0,
						2.0
					]
				}
			},
			"name":"Mat",
			"pbrMetallicRoughness":{
				"metallicFactor":0,
				"roughnessFactor":0.4343145787715912
			}
		}
	],
	"meshes":[
		{
			"name":"\u30e1\u30c3\u30b7\u30e5",
			"primitives":[
				{
					"attributes":{
						"POSITION":0,
						"NORMAL":1,
						"TEXCOORD_0":2
					},
					"indices":3,
					"material":0
				}
			]
		}
	],
	"accessors":[
		{
			"bufferView":0,
			"componentType":5126,
			"count":5048,
			"max":[
				27.588499069213867,
				27.164438247680664,
				50.675987243652344
			],
			"min":[
				-27.588499069213867,
				-27.164438247680664,
				-50.675987243652344
			],
			"type":"VEC3"
		},
		{
			"bufferView":1,
			"componentType":5126,
			"count":5048,
			"type":"VEC3"
		},
		{
			"bufferView":2,
			"componentType":5126,
			"count":5048,
			"type":"VEC2"
		},
		{
			"bufferView":3,
			"componentType":5123,
			"count":14022,
			"type":"SCALAR"
		}
	],
	"bufferViews":[
		{
			"buffer":0,
			"byteLength":60576,
			"byteOffset":0,
			"target":34962
		},
		{
			"buffer":0,
			"byteLength":60576,
			"byteOffset":60576,
			"target":34962
		},
		{
			"buffer":0,
			"byteLength":40384,
			"byteOffset":121152,
			"target":34962
		},
		{
			"buffer":0,
			"byteLength":28044,
			"byteOffset":161536,
			"target":34963
		}
	],
	"buffers":[
		{
			"byteLength":189580,
			"uri":"Chair.bin"
		}
	]
}
