{
	"asset":{
		"generator":"Khronos glTF Blender I/O v4.1.62",
		"version":"2.0"
	},
	"scene":0,
	"scenes":[
		{
			"name":"Scene",
			"nodes":[
				9
			]
		}
	],
	"nodes":[
		{
			"name":"col-1"
		},
		{
			"name":"col-2"
		},
		{
			"name":"col-3"
		},
		{
			"name":"detail300"
		},
		{
			"mesh":0,
			"name":"collision-1",
			"scale":[
				0.20817090570926666,
				0.20817090570926666,
				0.20817090570926666
			],
			"translation":[
				-35.33964920043945,
				-1.0900160074234009,
				0.5126023888587952
			]
		},
		{
			"mesh":1,
			"name":"collision-2",
			"scale":[
				0.20817090570926666,
				0.20817090570926666,
				0.20817090570926666
			],
			"translation":[
				37.5919075012207,
				-1.0900160074234009,
				0.5126023888587952
			]
		},
		{
			"mesh":2,
			"name":"collision-3",
			"scale":[
				0.20817090570926666,
				0.20817090570926666,
				0.20817090570926666
			],
			"translation":[
				37.5919075012207,
				32.53968811035156,
				0.5126041769981384
			]
		},
		{
			"mesh":3,
			"name":"OfficeDeskOne300",
			"scale":[
				0.20817090570926666,
				0.20817090570926666,
				0.20817090570926666
			],
			"translation":[
				0.6948728561401367,
				-0.8383532166481018,
				2.802448034286499
			]
		},
		{
			"children":[
				4,
				5,
				6,
				7
			],
			"name":"Start01"
		},
		{
			"children":[
				0,
				1,
				2,
				3,
				8
			],
			"name":"Base01",
			"scale":[
				0.02539999969303608,
				0.02539999969303608,
				0.02539999969303608
			],
			"translation":[
				0.021076813340187073,
				0,
				-0.015631021931767464
			]
		}
	],
	"materials":[
		{
			"doubleSided":true,
			"name":"\u30de\u30c6\u30ea\u30a2\u30eb.001",
			"pbrMetallicRoughness":{
				"baseColorTexture":{
					"index":0
				},
				"metallicFactor":0,
				"roughnessFactor":0.5
			}
		},
		{
			"doubleSided":true,
			"name":"\u30de\u30c6\u30ea\u30a2\u30eb.002",
			"pbrMetallicRoughness":{
				"baseColorTexture":{
					"index":1
				},
				"metallicFactor":0,
				"roughnessFactor":0.5
			}
		},
		{
			"doubleSided":true,
			"name":"\u30de\u30c6\u30ea\u30a2\u30eb",
			"pbrMetallicRoughness":{
				"baseColorTexture":{
					"index":2
				},
				"metallicFactor":0,
				"roughnessFactor":0.5
			}
		},
		{
			"doubleSided":true,
			"name":"DeskBlackLanimate",
			"pbrMetallicRoughness":{
				"baseColorFactor":[
					0.800000011920929,
					0.800000011920929,
					0.800000011920929,
					1
				],
				"metallicFactor":0,
				"roughnessFactor":0.5
			}
		},
		{
			"doubleSided":true,
			"name":"\u30de\u30c6\u30ea\u30a2\u30eb.003",
			"pbrMetallicRoughness":{
				"baseColorTexture":{
					"index":3
				},
				"metallicFactor":0,
				"roughnessFactor":0.5
			}
		}
	],
	"meshes":[
		{
			"name":"collision-1",
			"primitives":[
				{
					"attributes":{
						"POSITION":0,
						"NORMAL":1,
						"TEXCOORD_0":2
					},
					"indices":3,
					"material":0
				}
			]
		},
		{
			"name":"collision-2",
			"primitives":[
				{
					"attributes":{
						"POSITION":4,
						"NORMAL":5,
						"TEXCOORD_0":6
					},
					"indices":3,
					"material":1
				}
			]
		},
		{
			"name":"collision-3",
			"primitives":[
				{
					"attributes":{
						"POSITION":7,
						"NORMAL":8,
						"TEXCOORD_0":9
					},
					"indices":3,
					"material":2
				}
			]
		},
		{
			"name":"OfficeDeskOne300",
			"primitives":[
				{
					"attributes":{
						"POSITION":10,
						"NORMAL":11,
						"TEXCOORD_0":12
					},
					"indices":13,
					"material":3
				},
				{
					"attributes":{
						"POSITION":14,
						"NORMAL":15,
						"TEXCOORD_0":16
					},
					"indices":17,
					"material":4
				}
			]
		}
	],
	"textures":[
		{
			"sampler":0,
			"source":0
		},
		{
			"sampler":0,
			"source":0
		},
		{
			"sampler":0,
			"source":1
		},
		{
			"sampler":0,
			"source":0
		}
	],
	"images":[
		{
			"mimeType":"image/jpeg",
			"name":"3TD_DividerPaint_Dark_01",
			"uri":"3TD_DividerPaint_Dark_01.jpg"
		},
		{
			"mimeType":"image/jpeg",
			"name":"3TD_Office_Lite_hoz",
			"uri":"3TD_Office_Lite_hoz.jpg"
		}
	],
	"accessors":[
		{
			"bufferView":0,
			"componentType":5126,
			"count":24,
			"max":[
				7.5862579345703125,
				161.13609313964844,
				113.14749908447266
			],
			"min":[
				-9.31658935546875,
				0,
				-108.46589660644531
			],
			"type":"VEC3"
		},
		{
			"bufferView":1,
			"componentType":5126,
			"count":24,
			"type":"VEC3"
		},
		{
			"bufferView":2,
			"componentType":5126,
			"count":24,
			"type":"VEC2"
		},
		{
			"bufferView":3,
			"componentType":5123,
			"count":36,
			"type":"SCALAR"
		},
		{
			"bufferView":4,
			"componentType":5126,
			"count":24,
			"max":[
				9.35906982421875,
				161.13609313964844,
				113.14749908447266
			],
			"min":[
				-8.99658203125,
				0,
				-108.46589660644531
			],
			"type":"VEC3"
		},
		{
			"bufferView":5,
			"componentType":5126,
			"count":24,
			"type":"VEC3"
		},
		{
			"bufferView":6,
			"componentType":5126,
			"count":24,
			"type":"VEC2"
		},
		{
			"bufferView":7,
			"componentType":5126,
			"count":24,
			"max":[
				23.552139282226562,
				22.006269454956055,
				131.45559692382812
			],
			"min":[
				-378.7212829589844,
				0,
				-109.30089569091797
			],
			"type":"VEC3"
		},
		{
			"bufferView":8,
			"componentType":5126,
			"count":24,
			"type":"VEC3"
		},
		{
			"bufferView":9,
			"componentType":5126,
			"count":24,
			"type":"VEC2"
		},
		{
			"bufferView":10,
			"componentType":5126,
			"count":197,
			"max":[
				200.18260192871094,
				178.7816925048828,
				119.3052978515625
			],
			"min":[
				-201.1967315673828,
				-1.5723190307617188,
				-119.3051986694336
			],
			"type":"VEC3"
		},
		{
			"bufferView":11,
			"componentType":5126,
			"count":197,
			"type":"VEC3"
		},
		{
			"bufferView":12,
			"componentType":5126,
			"count":197,
			"type":"VEC2"
		},
		{
			"bufferView":13,
			"componentType":5123,
			"count":366,
			"type":"SCALAR"
		},
		{
			"bufferView":14,
			"componentType":5126,
			"count":202,
			"max":[
				200.18260192871094,
				178.7816925048828,
				119.04349517822266
			],
			"min":[
				-201.1967315673828,
				-1.5723190307617188,
				-119.3051986694336
			],
			"type":"VEC3"
		},
		{
			"bufferView":15,
			"componentType":5126,
			"count":202,
			"type":"VEC3"
		},
		{
			"bufferView":16,
			"componentType":5126,
			"count":202,
			"type":"VEC2"
		},
		{
			"bufferView":17,
			"componentType":5123,
			"count":318,
			"type":"SCALAR"
		}
	],
	"bufferViews":[
		{
			"buffer":0,
			"byteLength":288,
			"byteOffset":0,
			"target":34962
		},
		{
			"buffer":0,
			"byteLength":288,
			"byteOffset":288,
			"target":34962
		},
		{
			"buffer":0,
			"byteLength":192,
			"byteOffset":576,
			"target":34962
		},
		{
			"buffer":0,
			"byteLength":72,
			"byteOffset":768,
			"target":34963
		},
		{
			"buffer":0,
			"byteLength":288,
			"byteOffset":840,
			"target":34962
		},
		{
			"buffer":0,
			"byteLength":288,
			"byteOffset":1128,
			"target":34962
		},
		{
			"buffer":0,
			"byteLength":192,
			"byteOffset":1416,
			"target":34962
		},
		{
			"buffer":0,
			"byteLength":288,
			"byteOffset":1608,
			"target":34962
		},
		{
			"buffer":0,
			"byteLength":288,
			"byteOffset":1896,
			"target":34962
		},
		{
			"buffer":0,
			"byteLength":192,
			"byteOffset":2184,
			"target":34962
		},
		{
			"buffer":0,
			"byteLength":2364,
			"byteOffset":2376,
			"target":34962
		},
		{
			"buffer":0,
			"byteLength":2364,
			"byteOffset":4740,
			"target":34962
		},
		{
			"buffer":0,
			"byteLength":1576,
			"byteOffset":7104,
			"target":34962
		},
		{
			"buffer":0,
			"byteLength":732,
			"byteOffset":8680,
			"target":34963
		},
		{
			"buffer":0,
			"byteLength":2424,
			"byteOffset":9412,
			"target":34962
		},
		{
			"buffer":0,
			"byteLength":2424,
			"byteOffset":11836,
			"target":34962
		},
		{
			"buffer":0,
			"byteLength":1616,
			"byteOffset":14260,
			"target":34962
		},
		{
			"buffer":0,
			"byteLength":636,
			"byteOffset":15876,
			"target":34963
		}
	],
	"samplers":[
		{
			"magFilter":9729,
			"minFilter":9987
		}
	],
	"buffers":[
		{
			"byteLength":16512,
			"uri":"Desk.bin"
		}
	]
}
