{
	"asset":{
		"generator":"Khronos glTF Blender I/O v4.1.62",
		"version":"2.0"
	},
	"scene":0,
	"scenes":[
		{
			"name":"Scene",
			"nodes":[
				2
			]
		}
	],
	"nodes":[
		{
			"name":"Left",
			"translation":[
				0,
				-0.30000007152557373,
				1.100000023841858
			]
		},
		{
			"name":"Right",
			"translation":[
				0,
				-0.30000007152557373,
				-1.100000023841858
			]
		},
		{
			"children":[
				0,
				1
			],
			"mesh":0,
			"name":"robot",
			"scale":[
				0.8999999761581421,
				0.8999999761581421,
				0.8999999761581421
			],
			"translation":[
				0,
				1.3381280899047852,
				0
			]
		}
	],
	"materials":[
		{
			"doubleSided":true,
			"name":"\u30de\u30c6\u30ea\u30a2\u30eb.001",
			"pbrMetallicRoughness":{
				"baseColorFactor":[
					0.800000011920929,
					0.800000011920929,
					0.800000011920929,
					1
				],
				"metallicFactor":0,
				"roughnessFactor":0.5
			}
		},
		{
			"doubleSided":true,
			"name":"\u30de\u30c6\u30ea\u30a2\u30eb",
			"pbrMetallicRoughness":{
				"baseColorFactor":[
					0,
					0,
					0,
					1
				],
				"metallicFactor":0,
				"roughnessFactor":0.5
			}
		},
		{
			"doubleSided":true,
			"name":"\u30de\u30c6\u30ea\u30a2\u30eb.004",
			"pbrMetallicRoughness":{
				"baseColorFactor":[
					0,
					0,
					0,
					1
				],
				"metallicFactor":0,
				"roughnessFactor":0.5
			}
		},
		{
			"doubleSided":true,
			"name":"\u30de\u30c6\u30ea\u30a2\u30eb.005",
			"pbrMetallicRoughness":{
				"baseColorFactor":[
					0,
					0,
					0,
					1
				],
				"metallicFactor":0,
				"roughnessFactor":0.5
			}
		},
		{
			"doubleSided":true,
			"name":"\u30de\u30c6\u30ea\u30a2\u30eb.006",
			"pbrMetallicRoughness":{
				"baseColorFactor":[
					0,
					0,
					0,
					1
				],
				"metallicFactor":0,
				"roughnessFactor":0.5
			}
		},
		{
			"doubleSided":true,
			"name":"\u30de\u30c6\u30ea\u30a2\u30eb.007",
			"pbrMetallicRoughness":{
				"baseColorFactor":[
					0,
					0,
					0,
					1
				],
				"metallicFactor":0,
				"roughnessFactor":0.5
			}
		}
	],
	"meshes":[
		{
			"name":"\u5186",
			"primitives":[
				{
					"attributes":{
						"POSITION":0,
						"NORMAL":1,
						"TEXCOORD_0":2
					},
					"indices":3,
					"material":0
				},
				{
					"attributes":{
						"POSITION":4,
						"NORMAL":5,
						"TEXCOORD_0":6
					},
					"indices":7,
					"material":1
				},
				{
					"attributes":{
						"POSITION":8,
						"NORMAL":9,
						"TEXCOORD_0":10
					},
					"indices":11,
					"material":2
				},
				{
					"attributes":{
						"POSITION":12,
						"NORMAL":13,
						"TEXCOORD_0":14
					},
					"indices":11,
					"material":3
				},
				{
					"attributes":{
						"POSITION":15,
						"NORMAL":16,
						"TEXCOORD_0":17
					},
					"indices":11,
					"material":4
				},
				{
					"attributes":{
						"POSITION":18,
						"NORMAL":19,
						"TEXCOORD_0":20
					},
					"indices":21,
					"material":5
				}
			]
		}
	],
	"accessors":[
		{
			"bufferView":0,
			"componentType":5126,
			"count":64,
			"max":[
				1,
				0.03328658640384674,
				1
			],
			"min":[
				-1,
				0,
				-1
			],
			"type":"VEC3"
		},
		{
			"bufferView":1,
			"componentType":5126,
			"count":64,
			"type":"VEC3"
		},
		{
			"bufferView":2,
			"componentType":5126,
			"count":64,
			"type":"VEC2"
		},
		{
			"bufferView":3,
			"componentType":5123,
			"count":180,
			"type":"SCALAR"
		},
		{
			"bufferView":4,
			"componentType":5126,
			"count":518,
			"max":[
				1.1111111640930176,
				0.03652501106262207,
				1.1111111640930176
			],
			"min":[
				-1.1111111640930176,
				-0.820142388343811,
				-1.1111111640930176
			],
			"type":"VEC3"
		},
		{
			"bufferView":5,
			"componentType":5126,
			"count":518,
			"type":"VEC3"
		},
		{
			"bufferView":6,
			"componentType":5126,
			"count":518,
			"type":"VEC2"
		},
		{
			"bufferView":7,
			"componentType":5123,
			"count":1122,
			"type":"SCALAR"
		},
		{
			"bufferView":8,
			"componentType":5126,
			"count":4,
			"max":[
				-0.2905483841896057,
				0.03652501106262207,
				-0.021878264844417572
			],
			"min":[
				-0.4238817095756531,
				0.03652501106262207,
				-0.08854493498802185
			],
			"type":"VEC3"
		},
		{
			"bufferView":9,
			"componentType":5126,
			"count":4,
			"type":"VEC3"
		},
		{
			"bufferView":10,
			"componentType":5126,
			"count":4,
			"type":"VEC2"
		},
		{
			"bufferView":11,
			"componentType":5123,
			"count":6,
			"type":"SCALAR"
		},
		{
			"bufferView":12,
			"componentType":5126,
			"count":4,
			"max":[
				-0.2905891239643097,
				0.03652501106262207,
				0.11005160212516785
			],
			"min":[
				-0.42392244935035706,
				0.03652501106262207,
				0.04338492825627327
			],
			"type":"VEC3"
		},
		{
			"bufferView":13,
			"componentType":5126,
			"count":4,
			"type":"VEC3"
		},
		{
			"bufferView":14,
			"componentType":5126,
			"count":4,
			"type":"VEC2"
		},
		{
			"bufferView":15,
			"componentType":5126,
			"count":4,
			"max":[
				-0.4666249454021454,
				0.03652501106262207,
				0.03959231078624725
			],
			"min":[
				-0.5332916378974915,
				0.03652501106262207,
				-0.027074359357357025
			],
			"type":"VEC3"
		},
		{
			"bufferView":16,
			"componentType":5126,
			"count":4,
			"type":"VEC3"
		},
		{
			"bufferView":17,
			"componentType":5126,
			"count":4,
			"type":"VEC2"
		},
		{
			"bufferView":18,
			"componentType":5126,
			"count":32,
			"max":[
				-0.0855003297328949,
				0.023504391312599182,
				0.3333333730697632
			],
			"min":[
				-0.7521671056747437,
				0.023504391312599182,
				-0.3333333730697632
			],
			"type":"VEC3"
		},
		{
			"bufferView":19,
			"componentType":5126,
			"count":32,
			"type":"VEC3"
		},
		{
			"bufferView":20,
			"componentType":5126,
			"count":32,
			"type":"VEC2"
		},
		{
			"bufferView":21,
			"componentType":5123,
			"count":90,
			"type":"SCALAR"
		}
	],
	"bufferViews":[
		{
			"buffer":0,
			"byteLength":768,
			"byteOffset":0,
			"target":34962
		},
		{
			"buffer":0,
			"byteLength":768,
			"byteOffset":768,
			"target":34962
		},
		{
			"buffer":0,
			"byteLength":512,
			"byteOffset":1536,
			"target":34962
		},
		{
			"buffer":0,
			"byteLength":360,
			"byteOffset":2048,
			"target":34963
		},
		{
			"buffer":0,
			"byteLength":6216,
			"byteOffset":2408,
			"target":34962
		},
		{
			"buffer":0,
			"byteLength":6216,
			"byteOffset":8624,
			"target":34962
		},
		{
			"buffer":0,
			"byteLength":4144,
			"byteOffset":14840,
			"target":34962
		},
		{
			"buffer":0,
			"byteLength":2244,
			"byteOffset":18984,
			"target":34963
		},
		{
			"buffer":0,
			"byteLength":48,
			"byteOffset":21228,
			"target":34962
		},
		{
			"buffer":0,
			"byteLength":48,
			"byteOffset":21276,
			"target":34962
		},
		{
			"buffer":0,
			"byteLength":32,
			"byteOffset":21324,
			"target":34962
		},
		{
			"buffer":0,
			"byteLength":12,
			"byteOffset":21356,
			"target":34963
		},
		{
			"buffer":0,
			"byteLength":48,
			"byteOffset":21368,
			"target":34962
		},
		{
			"buffer":0,
			"byteLength":48,
			"byteOffset":21416,
			"target":34962
		},
		{
			"buffer":0,
			"byteLength":32,
			"byteOffset":21464,
			"target":34962
		},
		{
			"buffer":0,
			"byteLength":48,
			"byteOffset":21496,
			"target":34962
		},
		{
			"buffer":0,
			"byteLength":48,
			"byteOffset":21544,
			"target":34962
		},
		{
			"buffer":0,
			"byteLength":32,
			"byteOffset":21592,
			"target":34962
		},
		{
			"buffer":0,
			"byteLength":384,
			"byteOffset":21624,
			"target":34962
		},
		{
			"buffer":0,
			"byteLength":384,
			"byteOffset":22008,
			"target":34962
		},
		{
			"buffer":0,
			"byteLength":256,
			"byteOffset":22392,
			"target":34962
		},
		{
			"buffer":0,
			"byteLength":180,
			"byteOffset":22648,
			"target":34963
		}
	],
	"buffers":[
		{
			"byteLength":22828,
			"uri":"cleanRobot.bin"
		}
	]
}
