{
	"asset":{
		"generator":"Khronos glTF Blender I/O v4.1.62",
		"version":"2.0"
	},
	"extensionsUsed":[
		"KHR_materials_specular",
		"KHR_materials_ior"
	],
	"scene":0,
	"scenes":[
		{
			"name":"Scene",
			"nodes":[
				0,
				1,
				2,
				3
			]
		}
	],
	"nodes":[
		{
			"mesh":0,
			"name":"structure_medium",
			"rotation":[
				0.5,
				0.5,
				-0.5,
				0.5000000596046448
			],
			"scale":[
				0.009999999776482582,
				0.009999999776482582,
				0.009999999776482582
			],
			"translation":[
				0,
				0,
				1.5853028297424316
			]
		},
		{
			"mesh":1,
			"name":"structure_medium.001",
			"rotation":[
				0.5,
				0.5,
				-0.5,
				0.5000000596046448
			],
			"scale":[
				0.009999999776482582,
				0.009999999776482582,
				0.009999999776482582
			],
			"translation":[
				0,
				0,
				-1.5538146495819092
			]
		},
		{
			"mesh":2,
			"name":"container_w_inside"
		},
		{
			"mesh":3,
			"name":"container_w_inside_top"
		}
	],
	"materials":[
		{
			"doubleSided":true,
			"name":"colormap.004",
			"pbrMetallicRoughness":{
				"baseColorTexture":{
					"index":0
				},
				"metallicFactor":0,
				"roughnessFactor":0.5527864098548889
			}
		},
		{
			"doubleSided":true,
			"name":"colormap.001",
			"pbrMetallicRoughness":{
				"baseColorTexture":{
					"index":1
				},
				"metallicFactor":0,
				"roughnessFactor":0.5527864098548889
			}
		},
		{
			"doubleSided":true,
			"extensions":{
				"KHR_materials_specular":{
					"specularFactor":0
				},
				"KHR_materials_ior":{
					"ior":1.4500000476837158
				}
			},
			"name":"container_main",
			"normalTexture":{
				"index":2
			},
			"pbrMetallicRoughness":{
				"baseColorTexture":{
					"index":3
				},
				"metallicRoughnessTexture":{
					"index":4
				},
				"roughnessFactor":0.8000000715255737
			}
		},
		{
			"doubleSided":true,
			"extensions":{
				"KHR_materials_specular":{
					"specularFactor":0
				},
				"KHR_materials_ior":{
					"ior":1.4500000476837158
				}
			},
			"name":"container_top",
			"normalTexture":{
				"index":5
			},
			"pbrMetallicRoughness":{
				"baseColorTexture":{
					"index":6
				},
				"metallicRoughnessTexture":{
					"index":7
				},
				"roughnessFactor":0.8000000715255737
			}
		}
	],
	"meshes":[
		{
			"name":"Scene.004",
			"primitives":[
				{
					"attributes":{
						"POSITION":0,
						"NORMAL":1,
						"TEXCOORD_0":2
					},
					"indices":3,
					"material":0
				}
			]
		},
		{
			"name":"Scene.001",
			"primitives":[
				{
					"attributes":{
						"POSITION":4,
						"NORMAL":5,
						"TEXCOORD_0":6
					},
					"indices":3,
					"material":1
				}
			]
		},
		{
			"name":"Cylinder.002",
			"primitives":[
				{
					"attributes":{
						"POSITION":7,
						"NORMAL":8,
						"TEXCOORD_0":9
					},
					"indices":10,
					"material":2
				}
			]
		},
		{
			"name":"Cube.066",
			"primitives":[
				{
					"attributes":{
						"POSITION":11,
						"NORMAL":12,
						"TEXCOORD_0":13
					},
					"indices":14,
					"material":3
				}
			]
		}
	],
	"textures":[
		{
			"sampler":0,
			"source":0
		},
		{
			"sampler":0,
			"source":0
		},
		{
			"sampler":0,
			"source":1
		},
		{
			"sampler":0,
			"source":2
		},
		{
			"sampler":0,
			"source":3
		},
		{
			"sampler":0,
			"source":4
		},
		{
			"sampler":0,
			"source":5
		},
		{
			"sampler":0,
			"source":6
		}
	],
	"images":[
		{
			"mimeType":"image/png",
			"name":"colormap",
			"uri":"colormap.png"
		},
		{
			"mimeType":"image/png",
			"name":"container_main_norm",
			"uri":"container_main_norm.png"
		},
		{
			"mimeType":"image/png",
			"name":"container_main_dirty_corners",
			"uri":"container_main_dirty_corners.png"
		},
		{
			"mimeType":"image/png",
			"name":"container_main_metal-bake_4k",
			"uri":"container_main_metal-bake_4k.png"
		},
		{
			"mimeType":"image/png",
			"name":"container_top_norm",
			"uri":"container_top_norm.png"
		},
		{
			"mimeType":"image/png",
			"name":"container_top_dirty_corners",
			"uri":"container_top_dirty_corners.png"
		},
		{
			"mimeType":"image/png",
			"name":"metal-container_top_rough",
			"uri":"metal-container_top_rough.png"
		}
	],
	"accessors":[
		{
			"bufferView":0,
			"componentType":5126,
			"count":116,
			"max":[
				7.500000476837158,
				50,
				0
			],
			"min":[
				-7.500000476837158,
				-50,
				-100
			],
			"type":"VEC3"
		},
		{
			"bufferView":1,
			"componentType":5126,
			"count":116,
			"type":"VEC3"
		},
		{
			"bufferView":2,
			"componentType":5126,
			"count":116,
			"type":"VEC2"
		},
		{
			"bufferView":3,
			"componentType":5123,
			"count":228,
			"type":"SCALAR"
		},
		{
			"bufferView":4,
			"componentType":5126,
			"count":116,
			"max":[
				7.500000476837158,
				50,
				0
			],
			"min":[
				-7.500000476837158,
				-50,
				-100
			],
			"type":"VEC3"
		},
		{
			"bufferView":5,
			"componentType":5126,
			"count":116,
			"type":"VEC3"
		},
		{
			"bufferView":6,
			"componentType":5126,
			"count":116,
			"type":"VEC2"
		},
		{
			"bufferView":7,
			"componentType":5126,
			"count":2453,
			"max":[
				1.0284324884414673,
				1.4476040601730347,
				1.7534873485565186
			],
			"min":[
				-1.0427486896514893,
				0,
				-1.7534873485565186
			],
			"type":"VEC3"
		},
		{
			"bufferView":8,
			"componentType":5126,
			"count":2453,
			"type":"VEC3"
		},
		{
			"bufferView":9,
			"componentType":5126,
			"count":2453,
			"type":"VEC2"
		},
		{
			"bufferView":10,
			"componentType":5123,
			"count":5340,
			"type":"SCALAR"
		},
		{
			"bufferView":11,
			"componentType":5126,
			"count":1232,
			"max":[
				1.0245102643966675,
				1.5671097040176392,
				1.7534873485565186
			],
			"min":[
				-1.047135591506958,
				1.2031843662261963,
				-1.7534873485565186
			],
			"type":"VEC3"
		},
		{
			"bufferView":12,
			"componentType":5126,
			"count":1232,
			"type":"VEC3"
		},
		{
			"bufferView":13,
			"componentType":5126,
			"count":1232,
			"type":"VEC2"
		},
		{
			"bufferView":14,
			"componentType":5123,
			"count":3012,
			"type":"SCALAR"
		}
	],
	"bufferViews":[
		{
			"buffer":0,
			"byteLength":1392,
			"byteOffset":0,
			"target":34962
		},
		{
			"buffer":0,
			"byteLength":1392,
			"byteOffset":1392,
			"target":34962
		},
		{
			"buffer":0,
			"byteLength":928,
			"byteOffset":2784,
			"target":34962
		},
		{
			"buffer":0,
			"byteLength":456,
			"byteOffset":3712,
			"target":34963
		},
		{
			"buffer":0,
			"byteLength":1392,
			"byteOffset":4168,
			"target":34962
		},
		{
			"buffer":0,
			"byteLength":1392,
			"byteOffset":5560,
			"target":34962
		},
		{
			"buffer":0,
			"byteLength":928,
			"byteOffset":6952,
			"target":34962
		},
		{
			"buffer":0,
			"byteLength":29436,
			"byteOffset":7880,
			"target":34962
		},
		{
			"buffer":0,
			"byteLength":29436,
			"byteOffset":37316,
			"target":34962
		},
		{
			"buffer":0,
			"byteLength":19624,
			"byteOffset":66752,
			"target":34962
		},
		{
			"buffer":0,
			"byteLength":10680,
			"byteOffset":86376,
			"target":34963
		},
		{
			"buffer":0,
			"byteLength":14784,
			"byteOffset":97056,
			"target":34962
		},
		{
			"buffer":0,
			"byteLength":14784,
			"byteOffset":111840,
			"target":34962
		},
		{
			"buffer":0,
			"byteLength":9856,
			"byteOffset":126624,
			"target":34962
		},
		{
			"buffer":0,
			"byteLength":6024,
			"byteOffset":136480,
			"target":34963
		}
	],
	"samplers":[
		{
			"magFilter":9729,
			"minFilter":9987
		}
	],
	"buffers":[
		{
			"byteLength":142504,
			"uri":"container1.bin"
		}
	]
}
