{
	"asset":{
		"generator":"Khronos glTF Blender I/O v4.1.62",
		"version":"2.0"
	},
	"extensionsUsed":[
		"KHR_materials_specular",
		"KHR_materials_ior"
	],
	"scene":0,
	"scenes":[
		{
			"name":"Scene",
			"nodes":[
				0,
				1,
				2
			]
		}
	],
	"nodes":[
		{
			"mesh":0,
			"name":"container_w_inside"
		},
		{
			"mesh":1,
			"name":"container_w_inside_top"
		},
		{
			"mesh":2,
			"name":"container"
		}
	],
	"materials":[
		{
			"doubleSided":true,
			"extensions":{
				"KHR_materials_specular":{
					"specularFactor":0
				},
				"KHR_materials_ior":{
					"ior":1.4500000476837158
				}
			},
			"name":"container_main",
			"normalTexture":{
				"index":0
			},
			"pbrMetallicRoughness":{
				"baseColorTexture":{
					"index":1
				},
				"metallicRoughnessTexture":{
					"index":2
				},
				"roughnessFactor":0.8000000715255737
			}
		},
		{
			"doubleSided":true,
			"extensions":{
				"KHR_materials_specular":{
					"specularFactor":0
				},
				"KHR_materials_ior":{
					"ior":1.4500000476837158
				}
			},
			"name":"container_top",
			"normalTexture":{
				"index":3
			},
			"pbrMetallicRoughness":{
				"baseColorTexture":{
					"index":4
				},
				"metallicRoughnessTexture":{
					"index":5
				},
				"roughnessFactor":0.8000000715255737
			}
		}
	],
	"meshes":[
		{
			"name":"Cylinder.002",
			"primitives":[
				{
					"attributes":{
						"POSITION":0,
						"NORMAL":1,
						"TEXCOORD_0":2
					},
					"indices":3,
					"material":0
				}
			]
		},
		{
			"name":"Cube.066",
			"primitives":[
				{
					"attributes":{
						"POSITION":4,
						"NORMAL":5,
						"TEXCOORD_0":6
					},
					"indices":7,
					"material":1
				}
			]
		},
		{
			"name":"Cylinder.011",
			"primitives":[
				{
					"attributes":{
						"POSITION":8,
						"NORMAL":9,
						"TEXCOORD_0":10
					},
					"indices":11,
					"material":0
				},
				{
					"attributes":{
						"POSITION":12,
						"NORMAL":13,
						"TEXCOORD_0":14
					},
					"indices":15,
					"material":1
				}
			]
		}
	],
	"textures":[
		{
			"sampler":0,
			"source":0
		},
		{
			"sampler":0,
			"source":1
		},
		{
			"sampler":0,
			"source":2
		},
		{
			"sampler":0,
			"source":3
		},
		{
			"sampler":0,
			"source":4
		},
		{
			"sampler":0,
			"source":5
		}
	],
	"images":[
		{
			"mimeType":"image/png",
			"name":"container_main_norm",
			"uri":"container_main_norm.png"
		},
		{
			"mimeType":"image/png",
			"name":"container_main_dirty_corners",
			"uri":"container_main_dirty_corners.png"
		},
		{
			"mimeType":"image/png",
			"name":"container_main_metal-bake_4k",
			"uri":"container_main_metal-bake_4k.png"
		},
		{
			"mimeType":"image/png",
			"name":"container_top_norm",
			"uri":"container_top_norm.png"
		},
		{
			"mimeType":"image/png",
			"name":"container_top_dirty_corners",
			"uri":"container_top_dirty_corners.png"
		},
		{
			"mimeType":"image/png",
			"name":"metal-container_top_rough",
			"uri":"metal-container_top_rough.png"
		}
	],
	"accessors":[
		{
			"bufferView":0,
			"componentType":5126,
			"count":2453,
			"max":[
				1.0284324884414673,
				1.4476040601730347,
				1.7534873485565186
			],
			"min":[
				-1.0427486896514893,
				0,
				-1.7534873485565186
			],
			"type":"VEC3"
		},
		{
			"bufferView":1,
			"componentType":5126,
			"count":2453,
			"type":"VEC3"
		},
		{
			"bufferView":2,
			"componentType":5126,
			"count":2453,
			"type":"VEC2"
		},
		{
			"bufferView":3,
			"componentType":5123,
			"count":5340,
			"type":"SCALAR"
		},
		{
			"bufferView":4,
			"componentType":5126,
			"count":1232,
			"max":[
				1.0245102643966675,
				1.5671097040176392,
				1.7534873485565186
			],
			"min":[
				-1.047135591506958,
				1.2031843662261963,
				-1.7534873485565186
			],
			"type":"VEC3"
		},
		{
			"bufferView":5,
			"componentType":5126,
			"count":1232,
			"type":"VEC3"
		},
		{
			"bufferView":6,
			"componentType":5126,
			"count":1232,
			"type":"VEC2"
		},
		{
			"bufferView":7,
			"componentType":5123,
			"count":3012,
			"type":"SCALAR"
		},
		{
			"bufferView":8,
			"componentType":5126,
			"count":1353,
			"max":[
				1.0284324884414673,
				1.4476040601730347,
				1.7534873485565186
			],
			"min":[
				-1.0427486896514893,
				0,
				-1.7534873485565186
			],
			"type":"VEC3"
		},
		{
			"bufferView":9,
			"componentType":5126,
			"count":1353,
			"type":"VEC3"
		},
		{
			"bufferView":10,
			"componentType":5126,
			"count":1353,
			"type":"VEC2"
		},
		{
			"bufferView":11,
			"componentType":5123,
			"count":2988,
			"type":"SCALAR"
		},
		{
			"bufferView":12,
			"componentType":5126,
			"count":928,
			"max":[
				1.0245102643966675,
				1.5671097040176392,
				1.7534873485565186
			],
			"min":[
				-1.047135591506958,
				1.2031843662261963,
				-1.7534873485565186
			],
			"type":"VEC3"
		},
		{
			"bufferView":13,
			"componentType":5126,
			"count":928,
			"type":"VEC3"
		},
		{
			"bufferView":14,
			"componentType":5126,
			"count":928,
			"type":"VEC2"
		},
		{
			"bufferView":15,
			"componentType":5123,
			"count":2286,
			"type":"SCALAR"
		}
	],
	"bufferViews":[
		{
			"buffer":0,
			"byteLength":29436,
			"byteOffset":0,
			"target":34962
		},
		{
			"buffer":0,
			"byteLength":29436,
			"byteOffset":29436,
			"target":34962
		},
		{
			"buffer":0,
			"byteLength":19624,
			"byteOffset":58872,
			"target":34962
		},
		{
			"buffer":0,
			"byteLength":10680,
			"byteOffset":78496,
			"target":34963
		},
		{
			"buffer":0,
			"byteLength":14784,
			"byteOffset":89176,
			"target":34962
		},
		{
			"buffer":0,
			"byteLength":14784,
			"byteOffset":103960,
			"target":34962
		},
		{
			"buffer":0,
			"byteLength":9856,
			"byteOffset":118744,
			"target":34962
		},
		{
			"buffer":0,
			"byteLength":6024,
			"byteOffset":128600,
			"target":34963
		},
		{
			"buffer":0,
			"byteLength":16236,
			"byteOffset":134624,
			"target":34962
		},
		{
			"buffer":0,
			"byteLength":16236,
			"byteOffset":150860,
			"target":34962
		},
		{
			"buffer":0,
			"byteLength":10824,
			"byteOffset":167096,
			"target":34962
		},
		{
			"buffer":0,
			"byteLength":5976,
			"byteOffset":177920,
			"target":34963
		},
		{
			"buffer":0,
			"byteLength":11136,
			"byteOffset":183896,
			"target":34962
		},
		{
			"buffer":0,
			"byteLength":11136,
			"byteOffset":195032,
			"target":34962
		},
		{
			"buffer":0,
			"byteLength":7424,
			"byteOffset":206168,
			"target":34962
		},
		{
			"buffer":0,
			"byteLength":4572,
			"byteOffset":213592,
			"target":34963
		}
	],
	"samplers":[
		{
			"magFilter":9729,
			"minFilter":9987
		}
	],
	"buffers":[
		{
			"byteLength":218164,
			"uri":"container.bin"
		}
	]
}
