{
	"asset":{
		"generator":"Khronos glTF Blender I/O v4.1.62",
		"version":"2.0"
	},
	"scene":0,
	"scenes":[
		{
			"name":"Scene",
			"nodes":[
				0,
				1,
				2,
				3,
				4,
				5,
				6,
				7,
				8,
				9,
				10,
				11,
				12,
				13
			]
		}
	],
	"nodes":[
		{
			"mesh":0,
			"name":"wall",
			"rotation":[
				0.5,
				-0.5,
				0.5,
				0.5000000596046448
			],
			"scale":[
				0.009999999776482582,
				0.009999999776482582,
				0.009999999776482582
			],
			"translation":[
				-3.499998092651367,
				0,
				0.5
			]
		},
		{
			"mesh":1,
			"name":"wall.001",
			"rotation":[
				0.7071068286895752,
				0,
				0,
				0.7071068286895752
			],
			"scale":[
				0.009999999776482582,
				0.009999999776482582,
				0.009999999776482582
			],
			"translation":[
				0,
				0,
				3
			]
		},
		{
			"mesh":2,
			"name":"structure_corner_outer",
			"rotation":[
				0.7071068286895752,
				0,
				0,
				0.7071068286895752
			],
			"scale":[
				0.009999999776482582,
				0.009999999776482582,
				0.009999999776482582
			],
			"translation":[
				-2.5,
				0,
				3
			]
		},
		{
			"mesh":3,
			"name":"structure_window",
			"rotation":[
				0.7071068286895752,
				0,
				0,
				0.7071068286895752
			],
			"scale":[
				0.009999999776482582,
				0.009999999776482582,
				0.009999999776482582
			]
		},
		{
			"mesh":4,
			"name":"wall.002",
			"rotation":[
				0.4999999403953552,
				0.5000000596046448,
				-0.5,
				0.5
			],
			"scale":[
				0.009999999776482582,
				0.009999999776482582,
				0.009999999776482582
			],
			"translation":[
				-2.5,
				0,
				5.5
			]
		},
		{
			"mesh":5,
			"name":"structure_corner_outer.001",
			"rotation":[
				0.5,
				0.5,
				-0.5,
				0.5000000596046448
			],
			"scale":[
				0.009999999776482582,
				0.009999999776482582,
				0.009999999776482582
			],
			"translation":[
				-2.5,
				0,
				26
			]
		},
		{
			"mesh":6,
			"name":"wall.003",
			"rotation":[
				0,
				-0.7071068286895752,
				0.7071068286895752,
				3.090862321641907e-08
			],
			"scale":[
				0.009999999776482582,
				0.009999999776482582,
				0.009999999776482582
			],
			"translation":[
				0,
				0,
				26
			]
		},
		{
			"mesh":7,
			"name":"structure_corner_outer.002",
			"rotation":[
				0.5,
				-0.5,
				0.5,
				0.5000000596046448
			],
			"scale":[
				0.009999999776482582,
				0.009999999776482582,
				0.009999999776482582
			],
			"translation":[
				20.5,
				0,
				3
			]
		},
		{
			"mesh":8,
			"name":"wall.004",
			"rotation":[
				0.5,
				-0.5,
				0.5,
				0.5000000596046448
			],
			"scale":[
				0.009999999776482582,
				0.009999999776482582,
				0.009999999776482582
			],
			"translation":[
				20.500001907348633,
				0,
				23.5
			]
		},
		{
			"mesh":9,
			"name":"structure_corner_outer.003",
			"rotation":[
				0,
				-0.7071068286895752,
				0.7071068286895752,
				3.090862321641907e-08
			],
			"scale":[
				0.009999999776482582,
				0.009999999776482582,
				0.009999999776482582
			],
			"translation":[
				20.5,
				0,
				26
			]
		},
		{
			"mesh":10,
			"name":"\u5e73\u9762",
			"translation":[
				-1,
				0,
				4.5
			]
		},
		{
			"mesh":11,
			"name":"conveyor_long",
			"rotation":[
				0.7071068286895752,
				0,
				0,
				0.7071068286895752
			],
			"scale":[
				0.009999999776482582,
				0.009999999776482582,
				0.009999999776482582
			],
			"translation":[
				2,
				1,
				6
			]
		},
		{
			"mesh":12,
			"name":"structure_medium",
			"rotation":[
				0.7071068286895752,
				0,
				0,
				0.7071068286895752
			],
			"scale":[
				0.009999999776482582,
				0.009999999776482582,
				0.009999999776482582
			],
			"translation":[
				1,
				0,
				6
			]
		},
		{
			"mesh":13,
			"name":"cover_corner",
			"rotation":[
				0,
				-0.7071068286895752,
				0.7071068286895752,
				3.090862321641907e-08
			],
			"scale":[
				0.009999999776482582,
				0.009999999776482582,
				0.009999999776482582
			],
			"translation":[
				1.1816266775131226,
				1.3796318769454956,
				6.008153915405273
			]
		}
	],
	"materials":[
		{
			"doubleSided":true,
			"name":"colormap.009",
			"pbrMetallicRoughness":{
				"baseColorTexture":{
					"index":0
				},
				"metallicFactor":0,
				"roughnessFactor":0.5527864098548889
			}
		},
		{
			"doubleSided":true,
			"name":"colormap.001",
			"pbrMetallicRoughness":{
				"baseColorTexture":{
					"index":1
				},
				"metallicFactor":0,
				"roughnessFactor":0.5527864098548889
			}
		},
		{
			"doubleSided":true,
			"name":"colormap",
			"pbrMetallicRoughness":{
				"baseColorTexture":{
					"index":2
				},
				"metallicFactor":0,
				"roughnessFactor":0.5527864098548889
			}
		},
		{
			"doubleSided":true,
			"name":"colormap.008",
			"pbrMetallicRoughness":{
				"baseColorTexture":{
					"index":3
				},
				"metallicFactor":0,
				"roughnessFactor":0.5527864098548889
			}
		},
		{
			"doubleSided":true,
			"name":"colormap.002",
			"pbrMetallicRoughness":{
				"baseColorTexture":{
					"index":4
				},
				"metallicFactor":0,
				"roughnessFactor":0.5527864098548889
			}
		},
		{
			"doubleSided":true,
			"name":"colormap.004",
			"pbrMetallicRoughness":{
				"baseColorTexture":{
					"index":5
				},
				"metallicFactor":0,
				"roughnessFactor":0.5527864098548889
			}
		},
		{
			"doubleSided":true,
			"name":"colormap.005",
			"pbrMetallicRoughness":{
				"baseColorTexture":{
					"index":6
				},
				"metallicFactor":0,
				"roughnessFactor":0.5527864098548889
			}
		},
		{
			"doubleSided":true,
			"name":"colormap.006",
			"pbrMetallicRoughness":{
				"baseColorTexture":{
					"index":7
				},
				"metallicFactor":0,
				"roughnessFactor":0.5527864098548889
			}
		},
		{
			"doubleSided":true,
			"name":"colormap.007",
			"pbrMetallicRoughness":{
				"baseColorTexture":{
					"index":8
				},
				"metallicFactor":0,
				"roughnessFactor":0.5527864098548889
			}
		},
		{
			"doubleSided":true,
			"name":"colormap.010",
			"pbrMetallicRoughness":{
				"baseColorTexture":{
					"index":9
				},
				"metallicFactor":0,
				"roughnessFactor":0.5527864098548889
			}
		},
		{
			"doubleSided":true,
			"name":"\u30de\u30c6\u30ea\u30a2\u30eb",
			"pbrMetallicRoughness":{
				"baseColorTexture":{
					"index":10
				},
				"metallicFactor":0.699999988079071,
				"roughnessFactor":0.5
			}
		},
		{
			"doubleSided":true,
			"name":"colormap.011",
			"pbrMetallicRoughness":{
				"baseColorTexture":{
					"index":11
				},
				"metallicFactor":0,
				"roughnessFactor":0.5527864098548889
			}
		},
		{
			"doubleSided":true,
			"name":"colormap.012",
			"pbrMetallicRoughness":{
				"baseColorTexture":{
					"index":12
				},
				"metallicFactor":0,
				"roughnessFactor":0.5527864098548889
			}
		},
		{
			"doubleSided":true,
			"name":"colormap.018",
			"pbrMetallicRoughness":{
				"baseColorTexture":{
					"index":13
				},
				"metallicFactor":0,
				"roughnessFactor":0.5527864098548889
			}
		}
	],
	"meshes":[
		{
			"name":"Scene.009",
			"primitives":[
				{
					"attributes":{
						"POSITION":0,
						"NORMAL":1,
						"TEXCOORD_0":2
					},
					"indices":3,
					"material":0
				}
			]
		},
		{
			"name":"Scene.001",
			"primitives":[
				{
					"attributes":{
						"POSITION":4,
						"NORMAL":5,
						"TEXCOORD_0":6
					},
					"indices":3,
					"material":1
				}
			]
		},
		{
			"name":"Scene",
			"primitives":[
				{
					"attributes":{
						"POSITION":7,
						"NORMAL":8,
						"TEXCOORD_0":9
					},
					"indices":10,
					"material":2
				}
			]
		},
		{
			"name":"Scene.008",
			"primitives":[
				{
					"attributes":{
						"POSITION":11,
						"NORMAL":12,
						"TEXCOORD_0":13
					},
					"indices":14,
					"material":3
				}
			]
		},
		{
			"name":"Scene.002",
			"primitives":[
				{
					"attributes":{
						"POSITION":15,
						"NORMAL":16,
						"TEXCOORD_0":17
					},
					"indices":3,
					"material":4
				}
			]
		},
		{
			"name":"Scene.004",
			"primitives":[
				{
					"attributes":{
						"POSITION":18,
						"NORMAL":19,
						"TEXCOORD_0":20
					},
					"indices":10,
					"material":5
				}
			]
		},
		{
			"name":"Scene.005",
			"primitives":[
				{
					"attributes":{
						"POSITION":21,
						"NORMAL":22,
						"TEXCOORD_0":23
					},
					"indices":3,
					"material":6
				}
			]
		},
		{
			"name":"Scene.006",
			"primitives":[
				{
					"attributes":{
						"POSITION":24,
						"NORMAL":25,
						"TEXCOORD_0":26
					},
					"indices":10,
					"material":7
				}
			]
		},
		{
			"name":"Scene.007",
			"primitives":[
				{
					"attributes":{
						"POSITION":27,
						"NORMAL":28,
						"TEXCOORD_0":29
					},
					"indices":3,
					"material":8
				}
			]
		},
		{
			"name":"Scene.010",
			"primitives":[
				{
					"attributes":{
						"POSITION":30,
						"NORMAL":31,
						"TEXCOORD_0":32
					},
					"indices":10,
					"material":9
				}
			]
		},
		{
			"name":"\u5e73\u9762",
			"primitives":[
				{
					"attributes":{
						"POSITION":33,
						"NORMAL":34,
						"TEXCOORD_0":35
					},
					"indices":36,
					"material":10
				}
			]
		},
		{
			"name":"Scene.017",
			"primitives":[
				{
					"attributes":{
						"POSITION":37,
						"NORMAL":38,
						"TEXCOORD_0":39
					},
					"indices":40,
					"material":11
				}
			]
		},
		{
			"name":"Scene.003",
			"primitives":[
				{
					"attributes":{
						"POSITION":41,
						"NORMAL":42,
						"TEXCOORD_0":43
					},
					"indices":44,
					"material":12
				}
			]
		},
		{
			"name":"Scene.030",
			"primitives":[
				{
					"attributes":{
						"POSITION":45,
						"NORMAL":46,
						"TEXCOORD_0":47
					},
					"indices":48,
					"material":13
				}
			]
		}
	],
	"textures":[
		{
			"sampler":0,
			"source":0
		},
		{
			"sampler":0,
			"source":0
		},
		{
			"sampler":0,
			"source":0
		},
		{
			"sampler":0,
			"source":0
		},
		{
			"sampler":0,
			"source":0
		},
		{
			"sampler":0,
			"source":0
		},
		{
			"sampler":0,
			"source":0
		},
		{
			"sampler":0,
			"source":0
		},
		{
			"sampler":0,
			"source":0
		},
		{
			"sampler":0,
			"source":0
		},
		{
			"sampler":0,
			"source":1
		},
		{
			"sampler":0,
			"source":0
		},
		{
			"sampler":0,
			"source":0
		},
		{
			"sampler":0,
			"source":0
		}
	],
	"images":[
		{
			"mimeType":"image/png",
			"name":"colormap",
			"uri":"colormap.png"
		},
		{
			"mimeType":"image/png",
			"name":"variation-a",
			"uri":"variation-a.png"
		}
	],
	"accessors":[
		{
			"bufferView":0,
			"componentType":5126,
			"count":142,
			"max":[
				100,
				150,
				-4.743824114723707e-15
			],
			"min":[
				-100,
				-50,
				-300
			],
			"type":"VEC3"
		},
		{
			"bufferView":1,
			"componentType":5126,
			"count":142,
			"type":"VEC3"
		},
		{
			"bufferView":2,
			"componentType":5126,
			"count":142,
			"type":"VEC2"
		},
		{
			"bufferView":3,
			"componentType":5123,
			"count":318,
			"type":"SCALAR"
		},
		{
			"bufferView":4,
			"componentType":5126,
			"count":142,
			"max":[
				100,
				150,
				-4.743824114723707e-15
			],
			"min":[
				-100,
				-50,
				-300
			],
			"type":"VEC3"
		},
		{
			"bufferView":5,
			"componentType":5126,
			"count":142,
			"type":"VEC3"
		},
		{
			"bufferView":6,
			"componentType":5126,
			"count":142,
			"type":"VEC2"
		},
		{
			"bufferView":7,
			"componentType":5126,
			"count":89,
			"max":[
				150,
				150,
				-4.5119463043140004e-15
			],
			"min":[
				-50,
				-50,
				-300
			],
			"type":"VEC3"
		},
		{
			"bufferView":8,
			"componentType":5126,
			"count":89,
			"type":"VEC3"
		},
		{
			"bufferView":9,
			"componentType":5126,
			"count":89,
			"type":"VEC2"
		},
		{
			"bufferView":10,
			"componentType":5123,
			"count":150,
			"type":"SCALAR"
		},
		{
			"bufferView":11,
			"componentType":5126,
			"count":141,
			"max":[
				50,
				150,
				-4.743824114723707e-15
			],
			"min":[
				-50,
				-50,
				-300
			],
			"type":"VEC3"
		},
		{
			"bufferView":12,
			"componentType":5126,
			"count":141,
			"type":"VEC3"
		},
		{
			"bufferView":13,
			"componentType":5126,
			"count":141,
			"type":"VEC2"
		},
		{
			"bufferView":14,
			"componentType":5123,
			"count":318,
			"type":"SCALAR"
		},
		{
			"bufferView":15,
			"componentType":5126,
			"count":142,
			"max":[
				100,
				150,
				-4.743824114723707e-15
			],
			"min":[
				-100,
				-50,
				-300
			],
			"type":"VEC3"
		},
		{
			"bufferView":16,
			"componentType":5126,
			"count":142,
			"type":"VEC3"
		},
		{
			"bufferView":17,
			"componentType":5126,
			"count":142,
			"type":"VEC2"
		},
		{
			"bufferView":18,
			"componentType":5126,
			"count":89,
			"max":[
				150,
				150,
				-4.5119463043140004e-15
			],
			"min":[
				-50,
				-50,
				-300
			],
			"type":"VEC3"
		},
		{
			"bufferView":19,
			"componentType":5126,
			"count":89,
			"type":"VEC3"
		},
		{
			"bufferView":20,
			"componentType":5126,
			"count":89,
			"type":"VEC2"
		},
		{
			"bufferView":21,
			"componentType":5126,
			"count":142,
			"max":[
				100,
				150,
				-4.743824114723707e-15
			],
			"min":[
				-100,
				-50,
				-300
			],
			"type":"VEC3"
		},
		{
			"bufferView":22,
			"componentType":5126,
			"count":142,
			"type":"VEC3"
		},
		{
			"bufferView":23,
			"componentType":5126,
			"count":142,
			"type":"VEC2"
		},
		{
			"bufferView":24,
			"componentType":5126,
			"count":89,
			"max":[
				150,
				150,
				-4.5119463043140004e-15
			],
			"min":[
				-50,
				-50,
				-300
			],
			"type":"VEC3"
		},
		{
			"bufferView":25,
			"componentType":5126,
			"count":89,
			"type":"VEC3"
		},
		{
			"bufferView":26,
			"componentType":5126,
			"count":89,
			"type":"VEC2"
		},
		{
			"bufferView":27,
			"componentType":5126,
			"count":142,
			"max":[
				100,
				150,
				-4.743824114723707e-15
			],
			"min":[
				-100,
				-50,
				-300
			],
			"type":"VEC3"
		},
		{
			"bufferView":28,
			"componentType":5126,
			"count":142,
			"type":"VEC3"
		},
		{
			"bufferView":29,
			"componentType":5126,
			"count":142,
			"type":"VEC2"
		},
		{
			"bufferView":30,
			"componentType":5126,
			"count":89,
			"max":[
				150,
				150,
				-4.5119463043140004e-15
			],
			"min":[
				-50,
				-50,
				-300
			],
			"type":"VEC3"
		},
		{
			"bufferView":31,
			"componentType":5126,
			"count":89,
			"type":"VEC3"
		},
		{
			"bufferView":32,
			"componentType":5126,
			"count":89,
			"type":"VEC2"
		},
		{
			"bufferView":33,
			"componentType":5126,
			"count":4,
			"max":[
				1,
				0,
				1
			],
			"min":[
				-1,
				0,
				-1
			],
			"type":"VEC3"
		},
		{
			"bufferView":34,
			"componentType":5126,
			"count":4,
			"type":"VEC3"
		},
		{
			"bufferView":35,
			"componentType":5126,
			"count":4,
			"type":"VEC2"
		},
		{
			"bufferView":36,
			"componentType":5123,
			"count":6,
			"type":"SCALAR"
		},
		{
			"bufferView":37,
			"componentType":5126,
			"count":96,
			"max":[
				100,
				50,
				0
			],
			"min":[
				-100,
				-50,
				-40
			],
			"type":"VEC3"
		},
		{
			"bufferView":38,
			"componentType":5126,
			"count":96,
			"type":"VEC3"
		},
		{
			"bufferView":39,
			"componentType":5126,
			"count":96,
			"type":"VEC2"
		},
		{
			"bufferView":40,
			"componentType":5123,
			"count":276,
			"type":"SCALAR"
		},
		{
			"bufferView":41,
			"componentType":5126,
			"count":116,
			"max":[
				7.500000476837158,
				50,
				0
			],
			"min":[
				-7.500000476837158,
				-50,
				-100
			],
			"type":"VEC3"
		},
		{
			"bufferView":42,
			"componentType":5126,
			"count":116,
			"type":"VEC3"
		},
		{
			"bufferView":43,
			"componentType":5126,
			"count":116,
			"type":"VEC2"
		},
		{
			"bufferView":44,
			"componentType":5123,
			"count":228,
			"type":"SCALAR"
		},
		{
			"bufferView":45,
			"componentType":5126,
			"count":69,
			"max":[
				70,
				70,
				-9.926281530677622e-14
			],
			"min":[
				-71.32444763183594,
				-70,
				-120.00000762939453
			],
			"type":"VEC3"
		},
		{
			"bufferView":46,
			"componentType":5126,
			"count":69,
			"type":"VEC3"
		},
		{
			"bufferView":47,
			"componentType":5126,
			"count":69,
			"type":"VEC2"
		},
		{
			"bufferView":48,
			"componentType":5123,
			"count":117,
			"type":"SCALAR"
		}
	],
	"bufferViews":[
		{
			"buffer":0,
			"byteLength":1704,
			"byteOffset":0,
			"target":34962
		},
		{
			"buffer":0,
			"byteLength":1704,
			"byteOffset":1704,
			"target":34962
		},
		{
			"buffer":0,
			"byteLength":1136,
			"byteOffset":3408,
			"target":34962
		},
		{
			"buffer":0,
			"byteLength":636,
			"byteOffset":4544,
			"target":34963
		},
		{
			"buffer":0,
			"byteLength":1704,
			"byteOffset":5180,
			"target":34962
		},
		{
			"buffer":0,
			"byteLength":1704,
			"byteOffset":6884,
			"target":34962
		},
		{
			"buffer":0,
			"byteLength":1136,
			"byteOffset":8588,
			"target":34962
		},
		{
			"buffer":0,
			"byteLength":1068,
			"byteOffset":9724,
			"target":34962
		},
		{
			"buffer":0,
			"byteLength":1068,
			"byteOffset":10792,
			"target":34962
		},
		{
			"buffer":0,
			"byteLength":712,
			"byteOffset":11860,
			"target":34962
		},
		{
			"buffer":0,
			"byteLength":300,
			"byteOffset":12572,
			"target":34963
		},
		{
			"buffer":0,
			"byteLength":1692,
			"byteOffset":12872,
			"target":34962
		},
		{
			"buffer":0,
			"byteLength":1692,
			"byteOffset":14564,
			"target":34962
		},
		{
			"buffer":0,
			"byteLength":1128,
			"byteOffset":16256,
			"target":34962
		},
		{
			"buffer":0,
			"byteLength":636,
			"byteOffset":17384,
			"target":34963
		},
		{
			"buffer":0,
			"byteLength":1704,
			"byteOffset":18020,
			"target":34962
		},
		{
			"buffer":0,
			"byteLength":1704,
			"byteOffset":19724,
			"target":34962
		},
		{
			"buffer":0,
			"byteLength":1136,
			"byteOffset":21428,
			"target":34962
		},
		{
			"buffer":0,
			"byteLength":1068,
			"byteOffset":22564,
			"target":34962
		},
		{
			"buffer":0,
			"byteLength":1068,
			"byteOffset":23632,
			"target":34962
		},
		{
			"buffer":0,
			"byteLength":712,
			"byteOffset":24700,
			"target":34962
		},
		{
			"buffer":0,
			"byteLength":1704,
			"byteOffset":25412,
			"target":34962
		},
		{
			"buffer":0,
			"byteLength":1704,
			"byteOffset":27116,
			"target":34962
		},
		{
			"buffer":0,
			"byteLength":1136,
			"byteOffset":28820,
			"target":34962
		},
		{
			"buffer":0,
			"byteLength":1068,
			"byteOffset":29956,
			"target":34962
		},
		{
			"buffer":0,
			"byteLength":1068,
			"byteOffset":31024,
			"target":34962
		},
		{
			"buffer":0,
			"byteLength":712,
			"byteOffset":32092,
			"target":34962
		},
		{
			"buffer":0,
			"byteLength":1704,
			"byteOffset":32804,
			"target":34962
		},
		{
			"buffer":0,
			"byteLength":1704,
			"byteOffset":34508,
			"target":34962
		},
		{
			"buffer":0,
			"byteLength":1136,
			"byteOffset":36212,
			"target":34962
		},
		{
			"buffer":0,
			"byteLength":1068,
			"byteOffset":37348,
			"target":34962
		},
		{
			"buffer":0,
			"byteLength":1068,
			"byteOffset":38416,
			"target":34962
		},
		{
			"buffer":0,
			"byteLength":712,
			"byteOffset":39484,
			"target":34962
		},
		{
			"buffer":0,
			"byteLength":48,
			"byteOffset":40196,
			"target":34962
		},
		{
			"buffer":0,
			"byteLength":48,
			"byteOffset":40244,
			"target":34962
		},
		{
			"buffer":0,
			"byteLength":32,
			"byteOffset":40292,
			"target":34962
		},
		{
			"buffer":0,
			"byteLength":12,
			"byteOffset":40324,
			"target":34963
		},
		{
			"buffer":0,
			"byteLength":1152,
			"byteOffset":40336,
			"target":34962
		},
		{
			"buffer":0,
			"byteLength":1152,
			"byteOffset":41488,
			"target":34962
		},
		{
			"buffer":0,
			"byteLength":768,
			"byteOffset":42640,
			"target":34962
		},
		{
			"buffer":0,
			"byteLength":552,
			"byteOffset":43408,
			"target":34963
		},
		{
			"buffer":0,
			"byteLength":1392,
			"byteOffset":43960,
			"target":34962
		},
		{
			"buffer":0,
			"byteLength":1392,
			"byteOffset":45352,
			"target":34962
		},
		{
			"buffer":0,
			"byteLength":928,
			"byteOffset":46744,
			"target":34962
		},
		{
			"buffer":0,
			"byteLength":456,
			"byteOffset":47672,
			"target":34963
		},
		{
			"buffer":0,
			"byteLength":828,
			"byteOffset":48128,
			"target":34962
		},
		{
			"buffer":0,
			"byteLength":828,
			"byteOffset":48956,
			"target":34962
		},
		{
			"buffer":0,
			"byteLength":552,
			"byteOffset":49784,
			"target":34962
		},
		{
			"buffer":0,
			"byteLength":234,
			"byteOffset":50336,
			"target":34963
		}
	],
	"samplers":[
		{
			"magFilter":9729,
			"minFilter":9987
		}
	],
	"buffers":[
		{
			"byteLength":50572,
			"uri":"stage.bin"
		}
	]
}
