{
	"asset":{
		"generator":"Khronos glTF Blender I/O v4.1.62",
		"version":"2.0"
	},
	"extensionsUsed":[
		"KHR_materials_specular",
		"KHR_materials_ior"
	],
	"scene":0,
	"scenes":[
		{
			"name":"Scene",
			"nodes":[
				0,
				1
			]
		}
	],
	"nodes":[
		{
			"mesh":0,
			"name":"Bench",
			"scale":[
				0.14515559375286102,
				0.009999999776482582,
				0.9200000166893005
			],
			"translation":[
				0,
				0.7599999904632568,
				0
			]
		},
		{
			"mesh":1,
			"name":"COL",
			"scale":[
				0.5,
				0.5,
				1
			],
			"translation":[
				-0.07389617711305618,
				0.4879639744758606,
				0
			]
		}
	],
	"materials":[
		{
			"doubleSided":true,
			"extensions":{
				"KHR_materials_specular":{
					"specularFactor":0.6617647409439087
				},
				"KHR_materials_ior":{
					"ior":1.4500000476837158
				}
			},
			"name":"Arbetshylla",
			"pbrMetallicRoughness":{
				"baseColorFactor":[
					0.017386415973305702,
					0.017386415973305702,
					0.017386415973305702,
					1
				],
				"metallicFactor":0,
				"roughnessFactor":0.6397058963775635
			}
		},
		{
			"doubleSided":true,
			"extensions":{
				"KHR_materials_specular":{
					"specularColorFactor":[
						1.058823585510254,
						1.058823585510254,
						1.058823585510254
					]
				},
				"KHR_materials_ior":{
					"ior":1.4500000476837158
				}
			},
			"name":"Leg.001",
			"pbrMetallicRoughness":{
				"baseColorFactor":[
					0.08000902086496353,
					0.08000902086496353,
					0.08000902086496353,
					1
				],
				"metallicFactor":0.9338235259056091,
				"roughnessFactor":0.31617647409439087
			}
		},
		{
			"doubleSided":true,
			"extensions":{
				"KHR_materials_specular":{
					"specularColorFactor":[
						2.0,
						2.0,
						2.0
					]
				},
				"KHR_materials_ior":{
					"ior":1.4500000476837158
				}
			},
			"name":"Mat 01",
			"pbrMetallicRoughness":{
				"baseColorFactor":[
					0.057799916714429855,
					0.057799916714429855,
					0.057799916714429855,
					1
				],
				"metallicFactor":0.875,
				"roughnessFactor":0.3235294222831726
			}
		},
		{
			"doubleSided":true,
			"name":"\u6728\u6750",
			"pbrMetallicRoughness":{
				"baseColorTexture":{
					"index":0
				},
				"metallicFactor":0,
				"roughnessFactor":0.5
			}
		}
	],
	"meshes":[
		{
			"name":"Cube.266",
			"primitives":[
				{
					"attributes":{
						"POSITION":0,
						"NORMAL":1,
						"TEXCOORD_0":2
					},
					"indices":3,
					"material":0
				},
				{
					"attributes":{
						"POSITION":4,
						"NORMAL":5,
						"TEXCOORD_0":6
					},
					"indices":7,
					"material":1
				},
				{
					"attributes":{
						"POSITION":8,
						"NORMAL":9,
						"TEXCOORD_0":10
					},
					"indices":11,
					"material":2
				},
				{
					"attributes":{
						"POSITION":12,
						"NORMAL":13,
						"TEXCOORD_0":14
					},
					"indices":15,
					"material":3
				}
			]
		},
		{
			"name":"\u7acb\u65b9\u4f53",
			"primitives":[
				{
					"attributes":{
						"POSITION":16,
						"NORMAL":17,
						"TEXCOORD_0":18
					},
					"indices":19
				}
			]
		}
	],
	"textures":[
		{
			"sampler":0,
			"source":0
		}
	],
	"images":[
		{
			"mimeType":"image/png",
			"name":"25015543",
			"uri":"25015543.png"
		}
	],
	"accessors":[
		{
			"bufferView":0,
			"componentType":5126,
			"count":8,
			"max":[
				2.057605504989624,
				-54.30726623535156,
				1.0000213384628296
			],
			"min":[
				-0.6670567989349365,
				-56.30726623535156,
				-0.9999786615371704
			],
			"type":"VEC3"
		},
		{
			"bufferView":1,
			"componentType":5126,
			"count":8,
			"type":"VEC3"
		},
		{
			"bufferView":2,
			"componentType":5126,
			"count":8,
			"type":"VEC2"
		},
		{
			"bufferView":3,
			"componentType":5123,
			"count":12,
			"type":"SCALAR"
		},
		{
			"bufferView":4,
			"componentType":5126,
			"count":25878,
			"max":[
				2.0826032161712646,
				0.23815155029296875,
				1.002576470375061
			],
			"min":[
				-3.2857484817504883,
				-75.98019409179688,
				-1.002233862876892
			],
			"type":"VEC3"
		},
		{
			"bufferView":5,
			"componentType":5126,
			"count":25878,
			"type":"VEC3"
		},
		{
			"bufferView":6,
			"componentType":5126,
			"count":25878,
			"type":"VEC2"
		},
		{
			"bufferView":7,
			"componentType":5123,
			"count":72282,
			"type":"SCALAR"
		},
		{
			"bufferView":8,
			"componentType":5126,
			"count":272,
			"max":[
				2.041520833969116,
				-3.9858779907226562,
				1.0003819465637207
			],
			"min":[
				-3.267788887023926,
				-64.10665893554688,
				-1.0001540184020996
			],
			"type":"VEC3"
		},
		{
			"bufferView":9,
			"componentType":5126,
			"count":272,
			"type":"VEC3"
		},
		{
			"bufferView":10,
			"componentType":5126,
			"count":272,
			"type":"VEC2"
		},
		{
			"bufferView":11,
			"componentType":5123,
			"count":480,
			"type":"SCALAR"
		},
		{
			"bufferView":12,
			"componentType":5126,
			"count":32,
			"max":[
				2.0711491107940674,
				-0.9802017211914062,
				1.0003819465637207
			],
			"min":[
				-3.267949104309082,
				-64.10665893554688,
				-1.0001540184020996
			],
			"type":"VEC3"
		},
		{
			"bufferView":13,
			"componentType":5126,
			"count":32,
			"type":"VEC3"
		},
		{
			"bufferView":14,
			"componentType":5126,
			"count":32,
			"type":"VEC2"
		},
		{
			"bufferView":15,
			"componentType":5123,
			"count":48,
			"type":"SCALAR"
		},
		{
			"bufferView":16,
			"componentType":5126,
			"count":24,
			"max":[
				1,
				0.5237530469894409,
				1
			],
			"min":[
				-1,
				-1,
				-1
			],
			"type":"VEC3"
		},
		{
			"bufferView":17,
			"componentType":5126,
			"count":24,
			"type":"VEC3"
		},
		{
			"bufferView":18,
			"componentType":5126,
			"count":24,
			"type":"VEC2"
		},
		{
			"bufferView":19,
			"componentType":5123,
			"count":36,
			"type":"SCALAR"
		}
	],
	"bufferViews":[
		{
			"buffer":0,
			"byteLength":96,
			"byteOffset":0,
			"target":34962
		},
		{
			"buffer":0,
			"byteLength":96,
			"byteOffset":96,
			"target":34962
		},
		{
			"buffer":0,
			"byteLength":64,
			"byteOffset":192,
			"target":34962
		},
		{
			"buffer":0,
			"byteLength":24,
			"byteOffset":256,
			"target":34963
		},
		{
			"buffer":0,
			"byteLength":310536,
			"byteOffset":280,
			"target":34962
		},
		{
			"buffer":0,
			"byteLength":310536,
			"byteOffset":310816,
			"target":34962
		},
		{
			"buffer":0,
			"byteLength":207024,
			"byteOffset":621352,
			"target":34962
		},
		{
			"buffer":0,
			"byteLength":144564,
			"byteOffset":828376,
			"target":34963
		},
		{
			"buffer":0,
			"byteLength":3264,
			"byteOffset":972940,
			"target":34962
		},
		{
			"buffer":0,
			"byteLength":3264,
			"byteOffset":976204,
			"target":34962
		},
		{
			"buffer":0,
			"byteLength":2176,
			"byteOffset":979468,
			"target":34962
		},
		{
			"buffer":0,
			"byteLength":960,
			"byteOffset":981644,
			"target":34963
		},
		{
			"buffer":0,
			"byteLength":384,
			"byteOffset":982604,
			"target":34962
		},
		{
			"buffer":0,
			"byteLength":384,
			"byteOffset":982988,
			"target":34962
		},
		{
			"buffer":0,
			"byteLength":256,
			"byteOffset":983372,
			"target":34962
		},
		{
			"buffer":0,
			"byteLength":96,
			"byteOffset":983628,
			"target":34963
		},
		{
			"buffer":0,
			"byteLength":288,
			"byteOffset":983724,
			"target":34962
		},
		{
			"buffer":0,
			"byteLength":288,
			"byteOffset":984012,
			"target":34962
		},
		{
			"buffer":0,
			"byteLength":192,
			"byteOffset":984300,
			"target":34962
		},
		{
			"buffer":0,
			"byteLength":72,
			"byteOffset":984492,
			"target":34963
		}
	],
	"samplers":[
		{
			"magFilter":9729,
			"minFilter":9987
		}
	],
	"buffers":[
		{
			"byteLength":984564,
			"uri":"WorkBench.bin"
		}
	]
}
