{
	"asset":{
		"generator":"Khronos glTF Blender I/O v4.1.62",
		"version":"2.0"
	},
	"scene":0,
	"scenes":[
		{
			"name":"Scene",
			"nodes":[
				2,
				3,
				4
			]
		}
	],
	"nodes":[
		{
			"name":"Left",
			"translation":[
				0,
				-0.30000001192092896,
				1.100000023841858
			]
		},
		{
			"name":"Right",
			"translation":[
				0,
				-0.30000001192092896,
				-1.100000023841858
			]
		},
		{
			"children":[
				0,
				1
			],
			"mesh":0,
			"name":"robot",
			"scale":[
				0.8999999761581421,
				0.8999999761581421,
				0.8999999761581421
			],
			"translation":[
				0,
				0.33812808990478516,
				0
			]
		},
		{
			"mesh":1,
			"name":"missile",
			"rotation":[
				0,
				0,
				0.7071068286895752,
				0.7071068286895752
			],
			"scale":[
				0.10000000149011612,
				1,
				0.10000000149011612
			],
			"translation":[
				0,
				-0.002223491668701172,
				1
			]
		},
		{
			"mesh":2,
			"name":"missile.001",
			"rotation":[
				0,
				0,
				0.7071068286895752,
				0.7071068286895752
			],
			"scale":[
				0.10000000149011612,
				1,
				0.10000000149011612
			],
			"translation":[
				0,
				-0.002223491668701172,
				-1
			]
		}
	],
	"animations":[
		{
			"channels":[
				{
					"sampler":0,
					"target":{
						"node":3,
						"path":"translation"
					}
				}
			],
			"name":"Act",
			"samplers":[
				{
					"input":43,
					"interpolation":"LINEAR",
					"output":44
				}
			]
		}
	],
	"materials":[
		{
			"doubleSided":true,
			"name":"\u30de\u30c6\u30ea\u30a2\u30eb.001",
			"pbrMetallicRoughness":{
				"baseColorFactor":[
					0.800000011920929,
					0.800000011920929,
					0.800000011920929,
					1
				],
				"metallicFactor":0,
				"roughnessFactor":0.5
			}
		},
		{
			"doubleSided":true,
			"name":"\u30de\u30c6\u30ea\u30a2\u30eb",
			"pbrMetallicRoughness":{
				"baseColorFactor":[
					0,
					0,
					0,
					1
				],
				"metallicFactor":0,
				"roughnessFactor":0.5
			}
		},
		{
			"doubleSided":true,
			"name":"\u30de\u30c6\u30ea\u30a2\u30eb.004",
			"pbrMetallicRoughness":{
				"baseColorFactor":[
					0,
					0,
					0,
					1
				],
				"metallicFactor":0,
				"roughnessFactor":0.5
			}
		},
		{
			"doubleSided":true,
			"name":"\u30de\u30c6\u30ea\u30a2\u30eb.005",
			"pbrMetallicRoughness":{
				"baseColorFactor":[
					0,
					0,
					0,
					1
				],
				"metallicFactor":0,
				"roughnessFactor":0.5
			}
		},
		{
			"doubleSided":true,
			"name":"\u30de\u30c6\u30ea\u30a2\u30eb.006",
			"pbrMetallicRoughness":{
				"baseColorFactor":[
					0,
					0,
					0,
					1
				],
				"metallicFactor":0,
				"roughnessFactor":0.5
			}
		},
		{
			"doubleSided":true,
			"name":"\u30de\u30c6\u30ea\u30a2\u30eb.007",
			"pbrMetallicRoughness":{
				"baseColorFactor":[
					0,
					0,
					0,
					1
				],
				"metallicFactor":0,
				"roughnessFactor":0.5
			}
		},
		{
			"doubleSided":true,
			"name":"grey",
			"pbrMetallicRoughness":{
				"baseColorFactor":[
					0.13734915852546692,
					0.13734915852546692,
					0.13734915852546692,
					1
				],
				"metallicFactor":0.5229357481002808,
				"roughnessFactor":0.5
			}
		},
		{
			"doubleSided":true,
			"name":"darkgreen",
			"pbrMetallicRoughness":{
				"baseColorFactor":[
					0.03290286287665367,
					0.07640139013528824,
					0.0232861265540123,
					1
				],
				"metallicFactor":0,
				"roughnessFactor":0.5
			}
		},
		{
			"doubleSided":true,
			"name":"yellow",
			"pbrMetallicRoughness":{
				"baseColorFactor":[
					0.8000000715255737,
					0.7612169981002808,
					0.06052063778042793,
					1
				],
				"metallicFactor":0,
				"roughnessFactor":0.5
			}
		},
		{
			"doubleSided":true,
			"name":"grey.001",
			"pbrMetallicRoughness":{
				"baseColorFactor":[
					0.13734915852546692,
					0.13734915852546692,
					0.13734915852546692,
					1
				],
				"metallicFactor":0.5229357481002808,
				"roughnessFactor":0.5
			}
		},
		{
			"doubleSided":true,
			"name":"darkgreen.001",
			"pbrMetallicRoughness":{
				"baseColorFactor":[
					0.03290286287665367,
					0.07640139013528824,
					0.0232861265540123,
					1
				],
				"metallicFactor":0,
				"roughnessFactor":0.5
			}
		},
		{
			"doubleSided":true,
			"name":"yellow.001",
			"pbrMetallicRoughness":{
				"baseColorFactor":[
					0.8000000715255737,
					0.7612169981002808,
					0.06052063778042793,
					1
				],
				"metallicFactor":0,
				"roughnessFactor":0.5
			}
		}
	],
	"meshes":[
		{
			"name":"\u5186",
			"primitives":[
				{
					"attributes":{
						"POSITION":0,
						"NORMAL":1,
						"TEXCOORD_0":2
					},
					"indices":3,
					"material":0
				},
				{
					"attributes":{
						"POSITION":4,
						"NORMAL":5,
						"TEXCOORD_0":6
					},
					"indices":7,
					"material":1
				},
				{
					"attributes":{
						"POSITION":8,
						"NORMAL":9,
						"TEXCOORD_0":10
					},
					"indices":11,
					"material":2
				},
				{
					"attributes":{
						"POSITION":12,
						"NORMAL":13,
						"TEXCOORD_0":14
					},
					"indices":11,
					"material":3
				},
				{
					"attributes":{
						"POSITION":15,
						"NORMAL":16,
						"TEXCOORD_0":17
					},
					"indices":11,
					"material":4
				},
				{
					"attributes":{
						"POSITION":18,
						"NORMAL":19,
						"TEXCOORD_0":20
					},
					"indices":21,
					"material":5
				}
			]
		},
		{
			"name":"Cylinder",
			"primitives":[
				{
					"attributes":{
						"POSITION":22,
						"NORMAL":23,
						"TEXCOORD_0":24
					},
					"indices":25,
					"material":6
				},
				{
					"attributes":{
						"POSITION":26,
						"NORMAL":27,
						"TEXCOORD_0":28
					},
					"indices":29,
					"material":7
				},
				{
					"attributes":{
						"POSITION":30,
						"NORMAL":31,
						"TEXCOORD_0":32
					},
					"indices":33,
					"material":8
				}
			]
		},
		{
			"name":"Cylinder.001",
			"primitives":[
				{
					"attributes":{
						"POSITION":34,
						"NORMAL":35,
						"TEXCOORD_0":36
					},
					"indices":25,
					"material":9
				},
				{
					"attributes":{
						"POSITION":37,
						"NORMAL":38,
						"TEXCOORD_0":39
					},
					"indices":29,
					"material":10
				},
				{
					"attributes":{
						"POSITION":40,
						"NORMAL":41,
						"TEXCOORD_0":42
					},
					"indices":33,
					"material":11
				}
			]
		}
	],
	"accessors":[
		{
			"bufferView":0,
			"componentType":5126,
			"count":64,
			"max":[
				1,
				0.03328658640384674,
				1
			],
			"min":[
				-1,
				0,
				-1
			],
			"type":"VEC3"
		},
		{
			"bufferView":1,
			"componentType":5126,
			"count":64,
			"type":"VEC3"
		},
		{
			"bufferView":2,
			"componentType":5126,
			"count":64,
			"type":"VEC2"
		},
		{
			"bufferView":3,
			"componentType":5123,
			"count":180,
			"type":"SCALAR"
		},
		{
			"bufferView":4,
			"componentType":5126,
			"count":518,
			"max":[
				1.1111111640930176,
				0.03652501106262207,
				1.1111111640930176
			],
			"min":[
				-1.1111111640930176,
				-0.820142388343811,
				-1.1111111640930176
			],
			"type":"VEC3"
		},
		{
			"bufferView":5,
			"componentType":5126,
			"count":518,
			"type":"VEC3"
		},
		{
			"bufferView":6,
			"componentType":5126,
			"count":518,
			"type":"VEC2"
		},
		{
			"bufferView":7,
			"componentType":5123,
			"count":1122,
			"type":"SCALAR"
		},
		{
			"bufferView":8,
			"componentType":5126,
			"count":4,
			"max":[
				-0.2905483841896057,
				0.03652501106262207,
				-0.021878264844417572
			],
			"min":[
				-0.4238817095756531,
				0.03652501106262207,
				-0.08854493498802185
			],
			"type":"VEC3"
		},
		{
			"bufferView":9,
			"componentType":5126,
			"count":4,
			"type":"VEC3"
		},
		{
			"bufferView":10,
			"componentType":5126,
			"count":4,
			"type":"VEC2"
		},
		{
			"bufferView":11,
			"componentType":5123,
			"count":6,
			"type":"SCALAR"
		},
		{
			"bufferView":12,
			"componentType":5126,
			"count":4,
			"max":[
				-0.2905891239643097,
				0.03652501106262207,
				0.11005160212516785
			],
			"min":[
				-0.42392244935035706,
				0.03652501106262207,
				0.04338492825627327
			],
			"type":"VEC3"
		},
		{
			"bufferView":13,
			"componentType":5126,
			"count":4,
			"type":"VEC3"
		},
		{
			"bufferView":14,
			"componentType":5126,
			"count":4,
			"type":"VEC2"
		},
		{
			"bufferView":15,
			"componentType":5126,
			"count":4,
			"max":[
				-0.4666249454021454,
				0.03652501106262207,
				0.03959231078624725
			],
			"min":[
				-0.5332916378974915,
				0.03652501106262207,
				-0.027074359357357025
			],
			"type":"VEC3"
		},
		{
			"bufferView":16,
			"componentType":5126,
			"count":4,
			"type":"VEC3"
		},
		{
			"bufferView":17,
			"componentType":5126,
			"count":4,
			"type":"VEC2"
		},
		{
			"bufferView":18,
			"componentType":5126,
			"count":32,
			"max":[
				-0.0855003297328949,
				0.023504391312599182,
				0.3333333730697632
			],
			"min":[
				-0.7521671056747437,
				0.023504391312599182,
				-0.3333333730697632
			],
			"type":"VEC3"
		},
		{
			"bufferView":19,
			"componentType":5126,
			"count":32,
			"type":"VEC3"
		},
		{
			"bufferView":20,
			"componentType":5126,
			"count":32,
			"type":"VEC2"
		},
		{
			"bufferView":21,
			"componentType":5123,
			"count":90,
			"type":"SCALAR"
		},
		{
			"bufferView":22,
			"componentType":5126,
			"count":1148,
			"max":[
				4.436101913452148,
				1.541339635848999,
				4.43610143661499
			],
			"min":[
				-4.43610143661499,
				-1.0312023162841797,
				-4.43610143661499
			],
			"type":"VEC3"
		},
		{
			"bufferView":23,
			"componentType":5126,
			"count":1148,
			"type":"VEC3"
		},
		{
			"bufferView":24,
			"componentType":5126,
			"count":1148,
			"type":"VEC2"
		},
		{
			"bufferView":25,
			"componentType":5123,
			"count":2748,
			"type":"SCALAR"
		},
		{
			"bufferView":26,
			"componentType":5126,
			"count":553,
			"max":[
				4.436101913452148,
				1,
				4.43610143661499
			],
			"min":[
				-4.43610143661499,
				-0.9479374885559082,
				-4.43610143661499
			],
			"type":"VEC3"
		},
		{
			"bufferView":27,
			"componentType":5126,
			"count":553,
			"type":"VEC3"
		},
		{
			"bufferView":28,
			"componentType":5126,
			"count":553,
			"type":"VEC2"
		},
		{
			"bufferView":29,
			"componentType":5123,
			"count":1080,
			"type":"SCALAR"
		},
		{
			"bufferView":30,
			"componentType":5126,
			"count":128,
			"max":[
				1,
				0.23523160815238953,
				1
			],
			"min":[
				-1,
				0.20461499691009521,
				-1
			],
			"type":"VEC3"
		},
		{
			"bufferView":31,
			"componentType":5126,
			"count":128,
			"type":"VEC3"
		},
		{
			"bufferView":32,
			"componentType":5126,
			"count":128,
			"type":"VEC2"
		},
		{
			"bufferView":33,
			"componentType":5123,
			"count":192,
			"type":"SCALAR"
		},
		{
			"bufferView":34,
			"componentType":5126,
			"count":1148,
			"max":[
				4.436101913452148,
				1.541339635848999,
				4.43610143661499
			],
			"min":[
				-4.43610143661499,
				-1.0312023162841797,
				-4.43610143661499
			],
			"type":"VEC3"
		},
		{
			"bufferView":35,
			"componentType":5126,
			"count":1148,
			"type":"VEC3"
		},
		{
			"bufferView":36,
			"componentType":5126,
			"count":1148,
			"type":"VEC2"
		},
		{
			"bufferView":37,
			"componentType":5126,
			"count":553,
			"max":[
				4.436101913452148,
				1,
				4.43610143661499
			],
			"min":[
				-4.43610143661499,
				-0.9479374885559082,
				-4.43610143661499
			],
			"type":"VEC3"
		},
		{
			"bufferView":38,
			"componentType":5126,
			"count":553,
			"type":"VEC3"
		},
		{
			"bufferView":39,
			"componentType":5126,
			"count":553,
			"type":"VEC2"
		},
		{
			"bufferView":40,
			"componentType":5126,
			"count":128,
			"max":[
				1,
				0.23523160815238953,
				1
			],
			"min":[
				-1,
				0.20461499691009521,
				-1
			],
			"type":"VEC3"
		},
		{
			"bufferView":41,
			"componentType":5126,
			"count":128,
			"type":"VEC3"
		},
		{
			"bufferView":42,
			"componentType":5126,
			"count":128,
			"type":"VEC2"
		},
		{
			"bufferView":43,
			"componentType":5126,
			"count":60,
			"max":[
				2.5
			],
			"min":[
				0.041666666666666664
			],
			"type":"SCALAR"
		},
		{
			"bufferView":44,
			"componentType":5126,
			"count":60,
			"type":"VEC3"
		}
	],
	"bufferViews":[
		{
			"buffer":0,
			"byteLength":768,
			"byteOffset":0,
			"target":34962
		},
		{
			"buffer":0,
			"byteLength":768,
			"byteOffset":768,
			"target":34962
		},
		{
			"buffer":0,
			"byteLength":512,
			"byteOffset":1536,
			"target":34962
		},
		{
			"buffer":0,
			"byteLength":360,
			"byteOffset":2048,
			"target":34963
		},
		{
			"buffer":0,
			"byteLength":6216,
			"byteOffset":2408,
			"target":34962
		},
		{
			"buffer":0,
			"byteLength":6216,
			"byteOffset":8624,
			"target":34962
		},
		{
			"buffer":0,
			"byteLength":4144,
			"byteOffset":14840,
			"target":34962
		},
		{
			"buffer":0,
			"byteLength":2244,
			"byteOffset":18984,
			"target":34963
		},
		{
			"buffer":0,
			"byteLength":48,
			"byteOffset":21228,
			"target":34962
		},
		{
			"buffer":0,
			"byteLength":48,
			"byteOffset":21276,
			"target":34962
		},
		{
			"buffer":0,
			"byteLength":32,
			"byteOffset":21324,
			"target":34962
		},
		{
			"buffer":0,
			"byteLength":12,
			"byteOffset":21356,
			"target":34963
		},
		{
			"buffer":0,
			"byteLength":48,
			"byteOffset":21368,
			"target":34962
		},
		{
			"buffer":0,
			"byteLength":48,
			"byteOffset":21416,
			"target":34962
		},
		{
			"buffer":0,
			"byteLength":32,
			"byteOffset":21464,
			"target":34962
		},
		{
			"buffer":0,
			"byteLength":48,
			"byteOffset":21496,
			"target":34962
		},
		{
			"buffer":0,
			"byteLength":48,
			"byteOffset":21544,
			"target":34962
		},
		{
			"buffer":0,
			"byteLength":32,
			"byteOffset":21592,
			"target":34962
		},
		{
			"buffer":0,
			"byteLength":384,
			"byteOffset":21624,
			"target":34962
		},
		{
			"buffer":0,
			"byteLength":384,
			"byteOffset":22008,
			"target":34962
		},
		{
			"buffer":0,
			"byteLength":256,
			"byteOffset":22392,
			"target":34962
		},
		{
			"buffer":0,
			"byteLength":180,
			"byteOffset":22648,
			"target":34963
		},
		{
			"buffer":0,
			"byteLength":13776,
			"byteOffset":22828,
			"target":34962
		},
		{
			"buffer":0,
			"byteLength":13776,
			"byteOffset":36604,
			"target":34962
		},
		{
			"buffer":0,
			"byteLength":9184,
			"byteOffset":50380,
			"target":34962
		},
		{
			"buffer":0,
			"byteLength":5496,
			"byteOffset":59564,
			"target":34963
		},
		{
			"buffer":0,
			"byteLength":6636,
			"byteOffset":65060,
			"target":34962
		},
		{
			"buffer":0,
			"byteLength":6636,
			"byteOffset":71696,
			"target":34962
		},
		{
			"buffer":0,
			"byteLength":4424,
			"byteOffset":78332,
			"target":34962
		},
		{
			"buffer":0,
			"byteLength":2160,
			"byteOffset":82756,
			"target":34963
		},
		{
			"buffer":0,
			"byteLength":1536,
			"byteOffset":84916,
			"target":34962
		},
		{
			"buffer":0,
			"byteLength":1536,
			"byteOffset":86452,
			"target":34962
		},
		{
			"buffer":0,
			"byteLength":1024,
			"byteOffset":87988,
			"target":34962
		},
		{
			"buffer":0,
			"byteLength":384,
			"byteOffset":89012,
			"target":34963
		},
		{
			"buffer":0,
			"byteLength":13776,
			"byteOffset":89396,
			"target":34962
		},
		{
			"buffer":0,
			"byteLength":13776,
			"byteOffset":103172,
			"target":34962
		},
		{
			"buffer":0,
			"byteLength":9184,
			"byteOffset":116948,
			"target":34962
		},
		{
			"buffer":0,
			"byteLength":6636,
			"byteOffset":126132,
			"target":34962
		},
		{
			"buffer":0,
			"byteLength":6636,
			"byteOffset":132768,
			"target":34962
		},
		{
			"buffer":0,
			"byteLength":4424,
			"byteOffset":139404,
			"target":34962
		},
		{
			"buffer":0,
			"byteLength":1536,
			"byteOffset":143828,
			"target":34962
		},
		{
			"buffer":0,
			"byteLength":1536,
			"byteOffset":145364,
			"target":34962
		},
		{
			"buffer":0,
			"byteLength":1024,
			"byteOffset":146900,
			"target":34962
		},
		{
			"buffer":0,
			"byteLength":240,
			"byteOffset":147924
		},
		{
			"buffer":0,
			"byteLength":720,
			"byteOffset":148164
		}
	],
	"buffers":[
		{
			"byteLength":148884,
			"uri":"cleanRobot1.bin"
		}
	]
}
