{
	"asset":{
		"generator":"Khronos glTF Blender I/O v4.1.62",
		"version":"2.0"
	},
	"extensionsUsed":[
		"KHR_materials_specular"
	],
	"scene":0,
	"scenes":[
		{
			"name":"Scene",
			"nodes":[
				0,
				1,
				2,
				3
			]
		}
	],
	"nodes":[
		{
			"mesh":0,
			"name":"MnB_OfficeChair1P1_16x128",
			"scale":[
				0.02539999969303608,
				0.02539999969303608,
				0.02539999969303608
			],
			"translation":[
				-0.26905539631843567,
				0.6284952759742737,
				-0.10997762531042099
			]
		},
		{
			"mesh":1,
			"name":"MnB_OfficeChair1P2",
			"scale":[
				0.02539999969303608,
				0.02539999969303608,
				0.02539999969303608
			],
			"translation":[
				-0.2754742503166199,
				0.7299984097480774,
				-0.45065590739250183
			]
		},
		{
			"mesh":2,
			"name":"MnB_OfficeChair1P4_16x128",
			"scale":[
				0.02539999969303608,
				0.02539999969303608,
				0.02539999969303608
			],
			"translation":[
				-0.27111607789993286,
				0.6053563356399536,
				-0.5871440768241882
			]
		},
		{
			"mesh":3,
			"name":"MnB_OfficeChair1P3_8x128",
			"scale":[
				0.02539999969303608,
				0.02539999969303608,
				0.02539999969303608
			],
			"translation":[
				-0.10686355829238892,
				0.684668242931366,
				-0.5703206062316895
			]
		}
	],
	"materials":[
		{
			"doubleSided":true,
			"extensions":{
				"KHR_materials_specular":{
					"specularFactor":0
				}
			},
			"name":"Material__0",
			"pbrMetallicRoughness":{
				"baseColorFactor":[
					0.5879999995231628,
					0.5879999995231628,
					0.5879999995231628,
					1
				],
				"roughnessFactor":0.5
			}
		},
		{
			"doubleSided":true,
			"name":"\u30de\u30c6\u30ea\u30a2\u30eb.002",
			"pbrMetallicRoughness":{
				"baseColorFactor":[
					0,
					0,
					0,
					1
				],
				"metallicFactor":0,
				"roughnessFactor":0.5
			}
		},
		{
			"doubleSided":true,
			"name":"\u30de\u30c6\u30ea\u30a2\u30eb",
			"pbrMetallicRoughness":{
				"baseColorFactor":[
					0.002933521056547761,
					0.8003387451171875,
					0,
					1
				],
				"metallicFactor":0,
				"roughnessFactor":0.5
			}
		},
		{
			"doubleSided":true,
			"name":"\u30de\u30c6\u30ea\u30a2\u30eb.003",
			"pbrMetallicRoughness":{
				"baseColorFactor":[
					0.800000011920929,
					0.800000011920929,
					0.800000011920929,
					1
				],
				"metallicFactor":0,
				"roughnessFactor":0.5
			}
		},
		{
			"doubleSided":true,
			"name":"\u30de\u30c6\u30ea\u30a2\u30eb.001",
			"pbrMetallicRoughness":{
				"baseColorFactor":[
					0,
					0,
					0,
					1
				],
				"metallicFactor":0,
				"roughnessFactor":0.5
			}
		}
	],
	"meshes":[
		{
			"name":"MnB_OfficeChair1P1_16x128Mesh",
			"primitives":[
				{
					"attributes":{
						"POSITION":0,
						"NORMAL":1,
						"TEXCOORD_0":2
					},
					"indices":3,
					"material":0
				},
				{
					"attributes":{
						"POSITION":4,
						"NORMAL":5,
						"TEXCOORD_0":6
					},
					"indices":7,
					"material":1
				}
			]
		},
		{
			"name":"MnB_OfficeChair1P2Mesh",
			"primitives":[
				{
					"attributes":{
						"POSITION":8,
						"NORMAL":9,
						"TEXCOORD_0":10
					},
					"indices":11,
					"material":2
				}
			]
		},
		{
			"name":"MnB_OfficeChair1P4_16x128Mesh",
			"primitives":[
				{
					"attributes":{
						"POSITION":12,
						"NORMAL":13,
						"TEXCOORD_0":14
					},
					"indices":15,
					"material":3
				}
			]
		},
		{
			"name":"MnB_OfficeChair1P3_8x128Mesh",
			"primitives":[
				{
					"attributes":{
						"POSITION":16,
						"NORMAL":17,
						"TEXCOORD_0":18
					},
					"indices":19,
					"material":4
				}
			]
		}
	],
	"accessors":[
		{
			"bufferView":0,
			"componentType":5126,
			"count":450,
			"max":[
				7.689799785614014,
				-2.0410149097442627,
				-3.683058023452759
			],
			"min":[
				-5.2230119705200195,
				-12.529674530029297,
				-18.808124542236328
			],
			"type":"VEC3"
		},
		{
			"bufferView":1,
			"componentType":5126,
			"count":450,
			"type":"VEC3"
		},
		{
			"bufferView":2,
			"componentType":5126,
			"count":450,
			"type":"VEC2"
		},
		{
			"bufferView":3,
			"componentType":5123,
			"count":1824,
			"type":"SCALAR"
		},
		{
			"bufferView":4,
			"componentType":5126,
			"count":919,
			"max":[
				7.878425121307373,
				-2.041008949279785,
				-3.5618200302124023
			],
			"min":[
				-7.997095108032227,
				-12.638107299804688,
				-18.808124542236328
			],
			"type":"VEC3"
		},
		{
			"bufferView":5,
			"componentType":5126,
			"count":919,
			"type":"VEC3"
		},
		{
			"bufferView":6,
			"componentType":5126,
			"count":919,
			"type":"VEC2"
		},
		{
			"bufferView":7,
			"componentType":5123,
			"count":4320,
			"type":"SCALAR"
		},
		{
			"bufferView":8,
			"componentType":5126,
			"count":1129,
			"max":[
				6.720187187194824,
				10.703730583190918,
				8.134952545166016
			],
			"min":[
				-6.720265865325928,
				-6.357921123504639,
				-8.010187149047852
			],
			"type":"VEC3"
		},
		{
			"bufferView":9,
			"componentType":5126,
			"count":1129,
			"type":"VEC3"
		},
		{
			"bufferView":10,
			"componentType":5126,
			"count":1129,
			"type":"VEC2"
		},
		{
			"bufferView":11,
			"componentType":5123,
			"count":6144,
			"type":"SCALAR"
		},
		{
			"bufferView":12,
			"componentType":5126,
			"count":1125,
			"max":[
				0.9349650144577026,
				6.940764904022217,
				5.3728718757629395
			],
			"min":[
				-0.8697710037231445,
				-2.298171043395996,
				-1.2310709953308105
			],
			"type":"VEC3"
		},
		{
			"bufferView":13,
			"componentType":5126,
			"count":1125,
			"type":"VEC3"
		},
		{
			"bufferView":14,
			"componentType":5126,
			"count":1125,
			"type":"VEC2"
		},
		{
			"bufferView":15,
			"componentType":5123,
			"count":6144,
			"type":"SCALAR"
		},
		{
			"bufferView":16,
			"componentType":5126,
			"count":1166,
			"max":[
				1.1903200149536133,
				2.2646589279174805,
				13.970273971557617
			],
			"min":[
				-14.348262786865234,
				-5.30293607711792,
				1.2009170055389404
			],
			"type":"VEC3"
		},
		{
			"bufferView":17,
			"componentType":5126,
			"count":1166,
			"type":"VEC3"
		},
		{
			"bufferView":18,
			"componentType":5126,
			"count":1166,
			"type":"VEC2"
		},
		{
			"bufferView":19,
			"componentType":5123,
			"count":6144,
			"type":"SCALAR"
		}
	],
	"bufferViews":[
		{
			"buffer":0,
			"byteLength":5400,
			"byteOffset":0,
			"target":34962
		},
		{
			"buffer":0,
			"byteLength":5400,
			"byteOffset":5400,
			"target":34962
		},
		{
			"buffer":0,
			"byteLength":3600,
			"byteOffset":10800,
			"target":34962
		},
		{
			"buffer":0,
			"byteLength":3648,
			"byteOffset":14400,
			"target":34963
		},
		{
			"buffer":0,
			"byteLength":11028,
			"byteOffset":18048,
			"target":34962
		},
		{
			"buffer":0,
			"byteLength":11028,
			"byteOffset":29076,
			"target":34962
		},
		{
			"buffer":0,
			"byteLength":7352,
			"byteOffset":40104,
			"target":34962
		},
		{
			"buffer":0,
			"byteLength":8640,
			"byteOffset":47456,
			"target":34963
		},
		{
			"buffer":0,
			"byteLength":13548,
			"byteOffset":56096,
			"target":34962
		},
		{
			"buffer":0,
			"byteLength":13548,
			"byteOffset":69644,
			"target":34962
		},
		{
			"buffer":0,
			"byteLength":9032,
			"byteOffset":83192,
			"target":34962
		},
		{
			"buffer":0,
			"byteLength":12288,
			"byteOffset":92224,
			"target":34963
		},
		{
			"buffer":0,
			"byteLength":13500,
			"byteOffset":104512,
			"target":34962
		},
		{
			"buffer":0,
			"byteLength":13500,
			"byteOffset":118012,
			"target":34962
		},
		{
			"buffer":0,
			"byteLength":9000,
			"byteOffset":131512,
			"target":34962
		},
		{
			"buffer":0,
			"byteLength":12288,
			"byteOffset":140512,
			"target":34963
		},
		{
			"buffer":0,
			"byteLength":13992,
			"byteOffset":152800,
			"target":34962
		},
		{
			"buffer":0,
			"byteLength":13992,
			"byteOffset":166792,
			"target":34962
		},
		{
			"buffer":0,
			"byteLength":9328,
			"byteOffset":180784,
			"target":34962
		},
		{
			"buffer":0,
			"byteLength":12288,
			"byteOffset":190112,
			"target":34963
		}
	],
	"buffers":[
		{
			"byteLength":202400,
			"uri":"Chair2.bin"
		}
	]
}
