{
	"asset":{
		"generator":"Khronos glTF Blender I/O v4.1.62",
		"version":"2.0"
	},
	"scene":0,
	"scenes":[
		{
			"name":"Scene",
			"nodes":[
				0
			]
		}
	],
	"nodes":[
		{
			"mesh":0,
			"name":"missile",
			"scale":[
				0.5,
				5.809999942779541,
				0.5
			],
			"translation":[
				0,
				-0.002223374554887414,
				0
			]
		}
	],
	"materials":[
		{
			"doubleSided":true,
			"name":"grey",
			"pbrMetallicRoughness":{
				"baseColorFactor":[
					0.13734915852546692,
					0.13734915852546692,
					0.13734915852546692,
					1
				],
				"metallicFactor":0.5229357481002808,
				"roughnessFactor":0.5
			}
		},
		{
			"doubleSided":true,
			"name":"darkgreen",
			"pbrMetallicRoughness":{
				"baseColorFactor":[
					0.03290286287665367,
					0.07640139013528824,
					0.0232861265540123,
					1
				],
				"metallicFactor":0,
				"roughnessFactor":0.5
			}
		},
		{
			"doubleSided":true,
			"name":"yellow",
			"pbrMetallicRoughness":{
				"baseColorFactor":[
					0.8000000715255737,
					0.7612169981002808,
					0.06052063778042793,
					1
				],
				"metallicFactor":0,
				"roughnessFactor":0.5
			}
		}
	],
	"meshes":[
		{
			"name":"Cylinder",
			"primitives":[
				{
					"attributes":{
						"POSITION":0,
						"NORMAL":1,
						"TEXCOORD_0":2
					},
					"indices":3,
					"material":0
				},
				{
					"attributes":{
						"POSITION":4,
						"NORMAL":5,
						"TEXCOORD_0":6
					},
					"indices":7,
					"material":1
				},
				{
					"attributes":{
						"POSITION":8,
						"NORMAL":9,
						"TEXCOORD_0":10
					},
					"indices":11,
					"material":2
				}
			]
		}
	],
	"accessors":[
		{
			"bufferView":0,
			"componentType":5126,
			"count":1148,
			"max":[
				4.436101913452148,
				1.541339635848999,
				4.43610143661499
			],
			"min":[
				-4.43610143661499,
				-1.0312023162841797,
				-4.43610143661499
			],
			"type":"VEC3"
		},
		{
			"bufferView":1,
			"componentType":5126,
			"count":1148,
			"type":"VEC3"
		},
		{
			"bufferView":2,
			"componentType":5126,
			"count":1148,
			"type":"VEC2"
		},
		{
			"bufferView":3,
			"componentType":5123,
			"count":2748,
			"type":"SCALAR"
		},
		{
			"bufferView":4,
			"componentType":5126,
			"count":553,
			"max":[
				4.436101913452148,
				1,
				4.43610143661499
			],
			"min":[
				-4.43610143661499,
				-0.9479374885559082,
				-4.43610143661499
			],
			"type":"VEC3"
		},
		{
			"bufferView":5,
			"componentType":5126,
			"count":553,
			"type":"VEC3"
		},
		{
			"bufferView":6,
			"componentType":5126,
			"count":553,
			"type":"VEC2"
		},
		{
			"bufferView":7,
			"componentType":5123,
			"count":1080,
			"type":"SCALAR"
		},
		{
			"bufferView":8,
			"componentType":5126,
			"count":128,
			"max":[
				1,
				0.23523160815238953,
				1
			],
			"min":[
				-1,
				0.20461499691009521,
				-1
			],
			"type":"VEC3"
		},
		{
			"bufferView":9,
			"componentType":5126,
			"count":128,
			"type":"VEC3"
		},
		{
			"bufferView":10,
			"componentType":5126,
			"count":128,
			"type":"VEC2"
		},
		{
			"bufferView":11,
			"componentType":5123,
			"count":192,
			"type":"SCALAR"
		}
	],
	"bufferViews":[
		{
			"buffer":0,
			"byteLength":13776,
			"byteOffset":0,
			"target":34962
		},
		{
			"buffer":0,
			"byteLength":13776,
			"byteOffset":13776,
			"target":34962
		},
		{
			"buffer":0,
			"byteLength":9184,
			"byteOffset":27552,
			"target":34962
		},
		{
			"buffer":0,
			"byteLength":5496,
			"byteOffset":36736,
			"target":34963
		},
		{
			"buffer":0,
			"byteLength":6636,
			"byteOffset":42232,
			"target":34962
		},
		{
			"buffer":0,
			"byteLength":6636,
			"byteOffset":48868,
			"target":34962
		},
		{
			"buffer":0,
			"byteLength":4424,
			"byteOffset":55504,
			"target":34962
		},
		{
			"buffer":0,
			"byteLength":2160,
			"byteOffset":59928,
			"target":34963
		},
		{
			"buffer":0,
			"byteLength":1536,
			"byteOffset":62088,
			"target":34962
		},
		{
			"buffer":0,
			"byteLength":1536,
			"byteOffset":63624,
			"target":34962
		},
		{
			"buffer":0,
			"byteLength":1024,
			"byteOffset":65160,
			"target":34962
		},
		{
			"buffer":0,
			"byteLength":384,
			"byteOffset":66184,
			"target":34963
		}
	],
	"buffers":[
		{
			"byteLength":66568,
			"uri":"missile.bin"
		}
	]
}
