{
	"asset":{
		"generator":"Khronos glTF Blender I/O v4.1.62",
		"version":"2.0"
	},
	"scene":0,
	"scenes":[
		{
			"name":"Scene",
			"nodes":[
				0,
				1,
				2,
				3,
				4,
				5
			]
		}
	],
	"nodes":[
		{
			"mesh":0,
			"name":"Neck",
			"rotation":[
				0,
				0,
				0.7071068286895752,
				0.7071068286895752
			],
			"scale":[
				0.057319525629282,
				0.21152690052986145,
				0.5760968327522278
			],
			"translation":[
				0,
				3.1817374229431152,
				0
			]
		},
		{
			"mesh":1,
			"name":"Torso",
			"scale":[
				0.7199189066886902,
				0.7199189066886902,
				0.7199189066886902
			],
			"translation":[
				0,
				2.444645404815674,
				0
			]
		},
		{
			"mesh":2,
			"name":"ArmMuscle",
			"rotation":[
				0.5,
				-0.5,
				0.5,
				0.5000000596046448
			],
			"scale":[
				0.025678563863039017,
				0.21152690052986145,
				0.22231902182102203
			],
			"translation":[
				-0.002117972820997238,
				2.851017475128174,
				0.7614878416061401
			]
		},
		{
			"mesh":3,
			"name":"LegMuscle",
			"rotation":[
				0,
				0,
				-0.7071068286895752,
				0.7071068286895752
			],
			"scale":[
				0.025678563863039017,
				0.21152690052986145,
				0.22231902182102203
			],
			"translation":[
				-0.002117972820997238,
				1.6889327764511108,
				0.42234382033348083
			]
		},
		{
			"mesh":4,
			"name":"ArmMuscle.001",
			"rotation":[
				0.5,
				-0.5,
				0.5,
				0.5000000596046448
			],
			"scale":[
				0.025678563863039017,
				0.21152690052986145,
				0.22231902182102203
			],
			"translation":[
				-0.002117972820997238,
				2.851017475128174,
				-0.9783543944358826
			]
		},
		{
			"mesh":5,
			"name":"LegMuscle.001",
			"rotation":[
				0,
				0,
				-0.7071068286895752,
				0.7071068286895752
			],
			"scale":[
				0.025678563863039017,
				0.21152690052986145,
				0.22231902182102203
			],
			"translation":[
				-0.002117972820997238,
				1.6889327764511108,
				-0.4262551963329315
			]
		}
	],
	"materials":[
		{
			"doubleSided":true,
			"name":"Material.003",
			"pbrMetallicRoughness":{
				"baseColorFactor":[
					0.23275497555732727,
					0.35973161458969116,
					0.5,
					1
				],
				"roughnessFactor":0.5
			}
		},
		{
			"doubleSided":true,
			"name":"Material.001",
			"pbrMetallicRoughness":{
				"baseColorFactor":[
					0.504716694355011,
					0.504716694355011,
					0.504716694355011,
					1
				],
				"metallicFactor":0,
				"roughnessFactor":0.5
			}
		}
	],
	"meshes":[
		{
			"name":"Cube.014",
			"primitives":[
				{
					"attributes":{
						"POSITION":0,
						"NORMAL":1,
						"TEXCOORD_0":2
					},
					"indices":3,
					"material":0
				}
			]
		},
		{
			"name":"Cube.015",
			"primitives":[
				{
					"attributes":{
						"POSITION":4,
						"NORMAL":5,
						"TEXCOORD_0":6
					},
					"indices":7,
					"material":1
				}
			]
		},
		{
			"name":"Cube.016",
			"primitives":[
				{
					"attributes":{
						"POSITION":8,
						"NORMAL":9,
						"TEXCOORD_0":10
					},
					"indices":3,
					"material":0
				}
			]
		},
		{
			"name":"Cube.017",
			"primitives":[
				{
					"attributes":{
						"POSITION":11,
						"NORMAL":12,
						"TEXCOORD_0":13
					},
					"indices":3,
					"material":0
				}
			]
		},
		{
			"name":"Cube.001",
			"primitives":[
				{
					"attributes":{
						"POSITION":14,
						"NORMAL":15,
						"TEXCOORD_0":16
					},
					"indices":3,
					"material":0
				}
			]
		},
		{
			"name":"Cube.002",
			"primitives":[
				{
					"attributes":{
						"POSITION":17,
						"NORMAL":18,
						"TEXCOORD_0":19
					},
					"indices":3,
					"material":0
				}
			]
		}
	],
	"accessors":[
		{
			"bufferView":0,
			"componentType":5126,
			"count":912,
			"max":[
				9.483049392700195,
				1.0649882555007935,
				1.0649880170822144
			],
			"min":[
				-1.0649880170822144,
				-1.0649880170822144,
				-1.0649880170822144
			],
			"type":"VEC3"
		},
		{
			"bufferView":1,
			"componentType":5126,
			"count":912,
			"type":"VEC3"
		},
		{
			"bufferView":2,
			"componentType":5126,
			"count":912,
			"type":"VEC2"
		},
		{
			"bufferView":3,
			"componentType":5123,
			"count":3888,
			"type":"SCALAR"
		},
		{
			"bufferView":4,
			"componentType":5126,
			"count":1860,
			"max":[
				1.2606444358825684,
				1.1749995946884155,
				1.2606444358825684
			],
			"min":[
				-1.2606444358825684,
				-1.037301778793335,
				-1.2606444358825684
			],
			"type":"VEC3"
		},
		{
			"bufferView":5,
			"componentType":5126,
			"count":1860,
			"type":"VEC3"
		},
		{
			"bufferView":6,
			"componentType":5126,
			"count":1860,
			"type":"VEC2"
		},
		{
			"bufferView":7,
			"componentType":5123,
			"count":6468,
			"type":"SCALAR"
		},
		{
			"bufferView":8,
			"componentType":5126,
			"count":912,
			"max":[
				9.483049392700195,
				1.0649882555007935,
				1.0649880170822144
			],
			"min":[
				-1.0649880170822144,
				-1.0649880170822144,
				-1.0649880170822144
			],
			"type":"VEC3"
		},
		{
			"bufferView":9,
			"componentType":5126,
			"count":912,
			"type":"VEC3"
		},
		{
			"bufferView":10,
			"componentType":5126,
			"count":912,
			"type":"VEC2"
		},
		{
			"bufferView":11,
			"componentType":5126,
			"count":912,
			"max":[
				9.483049392700195,
				1.0649882555007935,
				1.0649880170822144
			],
			"min":[
				-1.0649880170822144,
				-1.0649880170822144,
				-1.0649880170822144
			],
			"type":"VEC3"
		},
		{
			"bufferView":12,
			"componentType":5126,
			"count":912,
			"type":"VEC3"
		},
		{
			"bufferView":13,
			"componentType":5126,
			"count":912,
			"type":"VEC2"
		},
		{
			"bufferView":14,
			"componentType":5126,
			"count":912,
			"max":[
				9.483049392700195,
				1.0649882555007935,
				1.0649880170822144
			],
			"min":[
				-1.0649880170822144,
				-1.0649880170822144,
				-1.0649880170822144
			],
			"type":"VEC3"
		},
		{
			"bufferView":15,
			"componentType":5126,
			"count":912,
			"type":"VEC3"
		},
		{
			"bufferView":16,
			"componentType":5126,
			"count":912,
			"type":"VEC2"
		},
		{
			"bufferView":17,
			"componentType":5126,
			"count":912,
			"max":[
				9.483049392700195,
				1.0649882555007935,
				1.0649880170822144
			],
			"min":[
				-1.0649880170822144,
				-1.0649880170822144,
				-1.0649880170822144
			],
			"type":"VEC3"
		},
		{
			"bufferView":18,
			"componentType":5126,
			"count":912,
			"type":"VEC3"
		},
		{
			"bufferView":19,
			"componentType":5126,
			"count":912,
			"type":"VEC2"
		}
	],
	"bufferViews":[
		{
			"buffer":0,
			"byteLength":10944,
			"byteOffset":0,
			"target":34962
		},
		{
			"buffer":0,
			"byteLength":10944,
			"byteOffset":10944,
			"target":34962
		},
		{
			"buffer":0,
			"byteLength":7296,
			"byteOffset":21888,
			"target":34962
		},
		{
			"buffer":0,
			"byteLength":7776,
			"byteOffset":29184,
			"target":34963
		},
		{
			"buffer":0,
			"byteLength":22320,
			"byteOffset":36960,
			"target":34962
		},
		{
			"buffer":0,
			"byteLength":22320,
			"byteOffset":59280,
			"target":34962
		},
		{
			"buffer":0,
			"byteLength":14880,
			"byteOffset":81600,
			"target":34962
		},
		{
			"buffer":0,
			"byteLength":12936,
			"byteOffset":96480,
			"target":34963
		},
		{
			"buffer":0,
			"byteLength":10944,
			"byteOffset":109416,
			"target":34962
		},
		{
			"buffer":0,
			"byteLength":10944,
			"byteOffset":120360,
			"target":34962
		},
		{
			"buffer":0,
			"byteLength":7296,
			"byteOffset":131304,
			"target":34962
		},
		{
			"buffer":0,
			"byteLength":10944,
			"byteOffset":138600,
			"target":34962
		},
		{
			"buffer":0,
			"byteLength":10944,
			"byteOffset":149544,
			"target":34962
		},
		{
			"buffer":0,
			"byteLength":7296,
			"byteOffset":160488,
			"target":34962
		},
		{
			"buffer":0,
			"byteLength":10944,
			"byteOffset":167784,
			"target":34962
		},
		{
			"buffer":0,
			"byteLength":10944,
			"byteOffset":178728,
			"target":34962
		},
		{
			"buffer":0,
			"byteLength":7296,
			"byteOffset":189672,
			"target":34962
		},
		{
			"buffer":0,
			"byteLength":10944,
			"byteOffset":196968,
			"target":34962
		},
		{
			"buffer":0,
			"byteLength":10944,
			"byteOffset":207912,
			"target":34962
		},
		{
			"buffer":0,
			"byteLength":7296,
			"byteOffset":218856,
			"target":34962
		}
	],
	"buffers":[
		{
			"byteLength":226152,
			"uri":"body.bin"
		}
	]
}
