{
	"asset":{
		"generator":"Khronos glTF Blender I/O v4.1.62",
		"version":"2.0"
	},
	"scene":0,
	"scenes":[
		{
			"name":"Scene",
			"nodes":[
				0,
				1,
				2,
				3,
				4,
				5,
				6,
				7,
				8,
				9,
				10,
				11,
				12,
				13
			]
		}
	],
	"nodes":[
		{
			"mesh":0,
			"name":"Neck",
			"rotation":[
				0,
				0,
				0.7071068286895752,
				0.7071067094802856
			],
			"scale":[
				0.057319533079862595,
				0.21152693033218384,
				0.5760968327522278
			],
			"translation":[
				0,
				3.1817374229431152,
				0
			]
		},
		{
			"mesh":1,
			"name":"Torso",
			"scale":[
				0.7199189066886902,
				0.7199189066886902,
				0.7199189066886902
			],
			"translation":[
				0,
				2.444645404815674,
				0
			]
		},
		{
			"mesh":2,
			"name":"ArmMuscle",
			"rotation":[
				0.5,
				-0.4999999701976776,
				0.4999999701976776,
				0.5
			],
			"scale":[
				0.025678567588329315,
				0.21152693033218384,
				0.22231905162334442
			],
			"translation":[
				-0.002117972820997238,
				2.851017475128174,
				0.7614878416061401
			]
		},
		{
			"mesh":3,
			"name":"LegMuscle",
			"rotation":[
				0,
				0,
				-0.7071068286895752,
				0.7071067094802856
			],
			"scale":[
				0.025678567588329315,
				0.21152693033218384,
				0.22231902182102203
			],
			"translation":[
				-0.002117972820997238,
				1.6889327764511108,
				0.42234382033348083
			]
		},
		{
			"mesh":4,
			"name":"ArmMuscle.001",
			"rotation":[
				0.5,
				-0.4999999701976776,
				0.4999999701976776,
				0.5
			],
			"scale":[
				0.025678567588329315,
				0.21152693033218384,
				0.22231905162334442
			],
			"translation":[
				-0.002117972820997238,
				2.851017475128174,
				-0.9783543944358826
			]
		},
		{
			"mesh":5,
			"name":"LegMuscle.001",
			"rotation":[
				0,
				0,
				-0.7071068286895752,
				0.7071067094802856
			],
			"scale":[
				0.025678567588329315,
				0.21152693033218384,
				0.22231902182102203
			],
			"translation":[
				-0.002117972820997238,
				1.6889327764511108,
				-0.4262551963329315
			]
		},
		{
			"mesh":6,
			"name":"Arms.001",
			"scale":[
				0.33670198917388916,
				0.27310022711753845,
				0.7832339406013489
			],
			"translation":[
				0,
				2.864429473876953,
				-1.7783000469207764
			]
		},
		{
			"mesh":7,
			"name":"Arms",
			"scale":[
				0.33670198917388916,
				0.27310022711753845,
				0.7832339406013489
			],
			"translation":[
				0,
				2.864429473876953,
				1.7782833576202393
			]
		},
		{
			"mesh":8,
			"name":"Legs.001",
			"rotation":[
				0.5,
				0.5,
				-0.5,
				0.5
			],
			"scale":[
				0.3001861870288849,
				0.27310022711753845,
				0.7832339406013489
			],
			"translation":[
				0,
				0.8061107397079468,
				-0.42847999930381775
			]
		},
		{
			"mesh":9,
			"name":"Legs",
			"rotation":[
				0.5,
				0.5,
				-0.5,
				0.5
			],
			"scale":[
				0.3001861870288849,
				0.27310022711753845,
				0.7832339406013489
			],
			"translation":[
				0,
				0.8061107397079468,
				0.4284788966178894
			]
		},
		{
			"mesh":10,
			"name":"Head",
			"scale":[
				1,
				0.89778071641922,
				1.3386623859405518
			],
			"translation":[
				0,
				4.216379642486572,
				0
			]
		},
		{
			"mesh":11,
			"name":"Bolt",
			"scale":[
				0.5294042825698853,
				0.5294042825698853,
				0.5294042825698853
			],
			"translation":[
				0,
				5.186293601989746,
				0
			]
		},
		{
			"mesh":12,
			"name":"Eyes.001",
			"rotation":[
				0,
				0,
				-0.7071068286895752,
				0.7071068286895752
			],
			"scale":[
				0.12000001966953278,
				1,
				0.24000000953674316
			],
			"translation":[
				1.1452257633209229,
				4.280879974365234,
				0.5799456834793091
			]
		},
		{
			"mesh":13,
			"name":"\u5e73\u9762",
			"rotation":[
				0,
				0,
				-0.7071068286895752,
				0.7071068286895752
			],
			"scale":[
				0.11999999731779099,
				0.15000003576278687,
				0.24000003933906555
			],
			"translation":[
				1.1174558401107788,
				4.305801868438721,
				-0.6148694753646851
			]
		}
	],
	"materials":[
		{
			"doubleSided":true,
			"name":"Material.003",
			"pbrMetallicRoughness":{
				"baseColorFactor":[
					0.23275497555732727,
					0.35973161458969116,
					0.5,
					1
				],
				"roughnessFactor":0.5
			}
		},
		{
			"doubleSided":true,
			"name":"Material.004",
			"pbrMetallicRoughness":{
				"baseColorFactor":[
					0.504716694355011,
					0.504716694355011,
					0.504716694355011,
					1
				],
				"metallicFactor":0,
				"roughnessFactor":0.5
			}
		},
		{
			"doubleSided":true,
			"name":"Material.005",
			"pbrMetallicRoughness":{
				"baseColorFactor":[
					0.5,
					0.5,
					0.5,
					1
				],
				"metallicFactor":0,
				"roughnessFactor":0.5
			}
		},
		{
			"doubleSided":true,
			"name":"Material.006",
			"pbrMetallicRoughness":{
				"baseColorFactor":[
					0.5,
					0.5,
					0.5,
					1
				],
				"metallicFactor":0,
				"roughnessFactor":0.5
			}
		},
		{
			"doubleSided":true,
			"name":"Material.007",
			"pbrMetallicRoughness":{
				"baseColorFactor":[
					0.5,
					0.5,
					0.5,
					1
				],
				"metallicFactor":0,
				"roughnessFactor":0.5
			}
		},
		{
			"doubleSided":true,
			"name":"Material.008",
			"pbrMetallicRoughness":{
				"baseColorFactor":[
					0.5,
					0.5,
					0.5,
					1
				],
				"metallicFactor":0,
				"roughnessFactor":0.5
			}
		},
		{
			"doubleSided":true,
			"name":"Material.001",
			"pbrMetallicRoughness":{
				"baseColorFactor":[
					0.5,
					0.5,
					0.5,
					1
				],
				"metallicFactor":0,
				"roughnessFactor":0.5
			}
		},
		{
			"doubleSided":true,
			"name":"Material.002",
			"pbrMetallicRoughness":{
				"baseColorFactor":[
					0.5411667227745056,
					0.6845464110374451,
					1,
					1
				],
				"roughnessFactor":0.5
			}
		},
		{
			"doubleSided":true,
			"name":"\u30de\u30c6\u30ea\u30a2\u30eb",
			"pbrMetallicRoughness":{
				"baseColorFactor":[
					0,
					0,
					0,
					1
				],
				"metallicFactor":0,
				"roughnessFactor":0.5
			}
		}
	],
	"meshes":[
		{
			"name":"Cube.014",
			"primitives":[
				{
					"attributes":{
						"POSITION":0,
						"NORMAL":1,
						"TEXCOORD_0":2
					},
					"indices":3,
					"material":0
				}
			]
		},
		{
			"name":"Cube.015",
			"primitives":[
				{
					"attributes":{
						"POSITION":4,
						"NORMAL":5,
						"TEXCOORD_0":6
					},
					"indices":7,
					"material":1
				}
			]
		},
		{
			"name":"Cube.016",
			"primitives":[
				{
					"attributes":{
						"POSITION":8,
						"NORMAL":9,
						"TEXCOORD_0":10
					},
					"indices":3,
					"material":0
				}
			]
		},
		{
			"name":"Cube.017",
			"primitives":[
				{
					"attributes":{
						"POSITION":11,
						"NORMAL":12,
						"TEXCOORD_0":13
					},
					"indices":3,
					"material":0
				}
			]
		},
		{
			"name":"Cube.001",
			"primitives":[
				{
					"attributes":{
						"POSITION":14,
						"NORMAL":15,
						"TEXCOORD_0":16
					},
					"indices":3,
					"material":0
				}
			]
		},
		{
			"name":"Cube.003",
			"primitives":[
				{
					"attributes":{
						"POSITION":17,
						"NORMAL":18,
						"TEXCOORD_0":19
					},
					"indices":3,
					"material":0
				}
			]
		},
		{
			"name":"Cube.004",
			"primitives":[
				{
					"attributes":{
						"POSITION":20,
						"NORMAL":21,
						"TEXCOORD_0":22
					},
					"indices":23,
					"material":2
				}
			]
		},
		{
			"name":"Cube.012",
			"primitives":[
				{
					"attributes":{
						"POSITION":24,
						"NORMAL":25,
						"TEXCOORD_0":26
					},
					"indices":23,
					"material":3
				}
			]
		},
		{
			"name":"Cube.005",
			"primitives":[
				{
					"attributes":{
						"POSITION":27,
						"NORMAL":28,
						"TEXCOORD_0":29
					},
					"indices":23,
					"material":4
				}
			]
		},
		{
			"name":"Cube.013",
			"primitives":[
				{
					"attributes":{
						"POSITION":30,
						"NORMAL":31,
						"TEXCOORD_0":32
					},
					"indices":23,
					"material":5
				}
			]
		},
		{
			"name":"Cube.002",
			"primitives":[
				{
					"attributes":{
						"POSITION":33,
						"NORMAL":34,
						"TEXCOORD_0":35
					},
					"indices":36,
					"material":6
				}
			]
		},
		{
			"name":"Cylinder.002",
			"primitives":[
				{
					"attributes":{
						"POSITION":37,
						"NORMAL":38,
						"TEXCOORD_0":39
					},
					"indices":40,
					"material":7
				}
			]
		},
		{
			"name":"\u5e73\u9762.001",
			"primitives":[
				{
					"attributes":{
						"POSITION":41,
						"NORMAL":42,
						"TEXCOORD_0":43
					},
					"indices":44,
					"material":8
				}
			]
		},
		{
			"name":"\u5e73\u9762.003",
			"primitives":[
				{
					"attributes":{
						"POSITION":45,
						"NORMAL":46,
						"TEXCOORD_0":47
					},
					"indices":44,
					"material":8
				}
			]
		}
	],
	"accessors":[
		{
			"bufferView":0,
			"componentType":5126,
			"count":912,
			"max":[
				9.483049392700195,
				1.0649882555007935,
				1.0649880170822144
			],
			"min":[
				-1.0649880170822144,
				-1.0649880170822144,
				-1.0649880170822144
			],
			"type":"VEC3"
		},
		{
			"bufferView":1,
			"componentType":5126,
			"count":912,
			"type":"VEC3"
		},
		{
			"bufferView":2,
			"componentType":5126,
			"count":912,
			"type":"VEC2"
		},
		{
			"bufferView":3,
			"componentType":5123,
			"count":3888,
			"type":"SCALAR"
		},
		{
			"bufferView":4,
			"componentType":5126,
			"count":1860,
			"max":[
				1.2606444358825684,
				1.1749995946884155,
				1.2606444358825684
			],
			"min":[
				-1.2606444358825684,
				-1.037301778793335,
				-1.2606444358825684
			],
			"type":"VEC3"
		},
		{
			"bufferView":5,
			"componentType":5126,
			"count":1860,
			"type":"VEC3"
		},
		{
			"bufferView":6,
			"componentType":5126,
			"count":1860,
			"type":"VEC2"
		},
		{
			"bufferView":7,
			"componentType":5123,
			"count":6468,
			"type":"SCALAR"
		},
		{
			"bufferView":8,
			"componentType":5126,
			"count":912,
			"max":[
				9.483049392700195,
				1.0649882555007935,
				1.0649880170822144
			],
			"min":[
				-1.0649880170822144,
				-1.0649880170822144,
				-1.0649880170822144
			],
			"type":"VEC3"
		},
		{
			"bufferView":9,
			"componentType":5126,
			"count":912,
			"type":"VEC3"
		},
		{
			"bufferView":10,
			"componentType":5126,
			"count":912,
			"type":"VEC2"
		},
		{
			"bufferView":11,
			"componentType":5126,
			"count":912,
			"max":[
				9.483049392700195,
				1.0649882555007935,
				1.0649880170822144
			],
			"min":[
				-1.0649880170822144,
				-1.0649880170822144,
				-1.0649880170822144
			],
			"type":"VEC3"
		},
		{
			"bufferView":12,
			"componentType":5126,
			"count":912,
			"type":"VEC3"
		},
		{
			"bufferView":13,
			"componentType":5126,
			"count":912,
			"type":"VEC2"
		},
		{
			"bufferView":14,
			"componentType":5126,
			"count":912,
			"max":[
				9.483049392700195,
				1.0649882555007935,
				1.0649880170822144
			],
			"min":[
				-1.0649880170822144,
				-1.0649880170822144,
				-1.0649880170822144
			],
			"type":"VEC3"
		},
		{
			"bufferView":15,
			"componentType":5126,
			"count":912,
			"type":"VEC3"
		},
		{
			"bufferView":16,
			"componentType":5126,
			"count":912,
			"type":"VEC2"
		},
		{
			"bufferView":17,
			"componentType":5126,
			"count":912,
			"max":[
				9.483049392700195,
				1.0649882555007935,
				1.0649880170822144
			],
			"min":[
				-1.0649880170822144,
				-1.0649880170822144,
				-1.0649880170822144
			],
			"type":"VEC3"
		},
		{
			"bufferView":18,
			"componentType":5126,
			"count":912,
			"type":"VEC3"
		},
		{
			"bufferView":19,
			"componentType":5126,
			"count":912,
			"type":"VEC2"
		},
		{
			"bufferView":20,
			"componentType":5126,
			"count":76,
			"max":[
				1.0649880170822144,
				1.0649880170822144,
				1.0649880170822144
			],
			"min":[
				-1.0649880170822144,
				-1.0649880170822144,
				-1.0649880170822144
			],
			"type":"VEC3"
		},
		{
			"bufferView":21,
			"componentType":5126,
			"count":76,
			"type":"VEC3"
		},
		{
			"bufferView":22,
			"componentType":5126,
			"count":76,
			"type":"VEC2"
		},
		{
			"bufferView":23,
			"componentType":5123,
			"count":324,
			"type":"SCALAR"
		},
		{
			"bufferView":24,
			"componentType":5126,
			"count":76,
			"max":[
				1.0649880170822144,
				1.0649880170822144,
				1.0649880170822144
			],
			"min":[
				-1.0649880170822144,
				-1.0649880170822144,
				-1.0649880170822144
			],
			"type":"VEC3"
		},
		{
			"bufferView":25,
			"componentType":5126,
			"count":76,
			"type":"VEC3"
		},
		{
			"bufferView":26,
			"componentType":5126,
			"count":76,
			"type":"VEC2"
		},
		{
			"bufferView":27,
			"componentType":5126,
			"count":76,
			"max":[
				1.0649880170822144,
				1.0649880170822144,
				1.0649880170822144
			],
			"min":[
				-1.0649880170822144,
				-1.0649880170822144,
				-1.0649880170822144
			],
			"type":"VEC3"
		},
		{
			"bufferView":28,
			"componentType":5126,
			"count":76,
			"type":"VEC3"
		},
		{
			"bufferView":29,
			"componentType":5126,
			"count":76,
			"type":"VEC2"
		},
		{
			"bufferView":30,
			"componentType":5126,
			"count":76,
			"max":[
				1.0649880170822144,
				1.0649880170822144,
				1.0649880170822144
			],
			"min":[
				-1.0649880170822144,
				-1.0649880170822144,
				-1.0649880170822144
			],
			"type":"VEC3"
		},
		{
			"bufferView":31,
			"componentType":5126,
			"count":76,
			"type":"VEC3"
		},
		{
			"bufferView":32,
			"componentType":5126,
			"count":76,
			"type":"VEC2"
		},
		{
			"bufferView":33,
			"componentType":5126,
			"count":125,
			"max":[
				1.1263614892959595,
				1.1315152645111084,
				1.1263614892959595
			],
			"min":[
				-1.1263614892959595,
				-0.9197370409965515,
				-1.1263614892959595
			],
			"type":"VEC3"
		},
		{
			"bufferView":34,
			"componentType":5126,
			"count":125,
			"type":"VEC3"
		},
		{
			"bufferView":35,
			"componentType":5126,
			"count":125,
			"type":"VEC2"
		},
		{
			"bufferView":36,
			"componentType":5123,
			"count":576,
			"type":"SCALAR"
		},
		{
			"bufferView":37,
			"componentType":5126,
			"count":278,
			"max":[
				1.9833612442016602,
				1.820974588394165,
				1.7176411151885986
			],
			"min":[
				-1.9833611249923706,
				-0.9449999928474426,
				-1.7176411151885986
			],
			"type":"VEC3"
		},
		{
			"bufferView":38,
			"componentType":5126,
			"count":278,
			"type":"VEC3"
		},
		{
			"bufferView":39,
			"componentType":5126,
			"count":278,
			"type":"VEC2"
		},
		{
			"bufferView":40,
			"componentType":5123,
			"count":768,
			"type":"SCALAR"
		},
		{
			"bufferView":41,
			"componentType":5126,
			"count":4,
			"max":[
				0.36335813999176025,
				2.155333689302097e-10,
				1.0557230710983276
			],
			"min":[
				-1.1391059160232544,
				-4.274863130149242e-09,
				-0.9700087308883667
			],
			"type":"VEC3"
		},
		{
			"bufferView":42,
			"componentType":5126,
			"count":4,
			"type":"VEC3"
		},
		{
			"bufferView":43,
			"componentType":5126,
			"count":4,
			"type":"VEC2"
		},
		{
			"bufferView":44,
			"componentType":5123,
			"count":6,
			"type":"SCALAR"
		},
		{
			"bufferView":45,
			"componentType":5126,
			"count":4,
			"max":[
				0.5562847256660461,
				1.0711387332662525e-08,
				1.0794029235839844
			],
			"min":[
				-0.8758838176727295,
				-2.0191979643868763e-08,
				-0.9205970764160156
			],
			"type":"VEC3"
		},
		{
			"bufferView":46,
			"componentType":5126,
			"count":4,
			"type":"VEC3"
		},
		{
			"bufferView":47,
			"componentType":5126,
			"count":4,
			"type":"VEC2"
		}
	],
	"bufferViews":[
		{
			"buffer":0,
			"byteLength":10944,
			"byteOffset":0,
			"target":34962
		},
		{
			"buffer":0,
			"byteLength":10944,
			"byteOffset":10944,
			"target":34962
		},
		{
			"buffer":0,
			"byteLength":7296,
			"byteOffset":21888,
			"target":34962
		},
		{
			"buffer":0,
			"byteLength":7776,
			"byteOffset":29184,
			"target":34963
		},
		{
			"buffer":0,
			"byteLength":22320,
			"byteOffset":36960,
			"target":34962
		},
		{
			"buffer":0,
			"byteLength":22320,
			"byteOffset":59280,
			"target":34962
		},
		{
			"buffer":0,
			"byteLength":14880,
			"byteOffset":81600,
			"target":34962
		},
		{
			"buffer":0,
			"byteLength":12936,
			"byteOffset":96480,
			"target":34963
		},
		{
			"buffer":0,
			"byteLength":10944,
			"byteOffset":109416,
			"target":34962
		},
		{
			"buffer":0,
			"byteLength":10944,
			"byteOffset":120360,
			"target":34962
		},
		{
			"buffer":0,
			"byteLength":7296,
			"byteOffset":131304,
			"target":34962
		},
		{
			"buffer":0,
			"byteLength":10944,
			"byteOffset":138600,
			"target":34962
		},
		{
			"buffer":0,
			"byteLength":10944,
			"byteOffset":149544,
			"target":34962
		},
		{
			"buffer":0,
			"byteLength":7296,
			"byteOffset":160488,
			"target":34962
		},
		{
			"buffer":0,
			"byteLength":10944,
			"byteOffset":167784,
			"target":34962
		},
		{
			"buffer":0,
			"byteLength":10944,
			"byteOffset":178728,
			"target":34962
		},
		{
			"buffer":0,
			"byteLength":7296,
			"byteOffset":189672,
			"target":34962
		},
		{
			"buffer":0,
			"byteLength":10944,
			"byteOffset":196968,
			"target":34962
		},
		{
			"buffer":0,
			"byteLength":10944,
			"byteOffset":207912,
			"target":34962
		},
		{
			"buffer":0,
			"byteLength":7296,
			"byteOffset":218856,
			"target":34962
		},
		{
			"buffer":0,
			"byteLength":912,
			"byteOffset":226152,
			"target":34962
		},
		{
			"buffer":0,
			"byteLength":912,
			"byteOffset":227064,
			"target":34962
		},
		{
			"buffer":0,
			"byteLength":608,
			"byteOffset":227976,
			"target":34962
		},
		{
			"buffer":0,
			"byteLength":648,
			"byteOffset":228584,
			"target":34963
		},
		{
			"buffer":0,
			"byteLength":912,
			"byteOffset":229232,
			"target":34962
		},
		{
			"buffer":0,
			"byteLength":912,
			"byteOffset":230144,
			"target":34962
		},
		{
			"buffer":0,
			"byteLength":608,
			"byteOffset":231056,
			"target":34962
		},
		{
			"buffer":0,
			"byteLength":912,
			"byteOffset":231664,
			"target":34962
		},
		{
			"buffer":0,
			"byteLength":912,
			"byteOffset":232576,
			"target":34962
		},
		{
			"buffer":0,
			"byteLength":608,
			"byteOffset":233488,
			"target":34962
		},
		{
			"buffer":0,
			"byteLength":912,
			"byteOffset":234096,
			"target":34962
		},
		{
			"buffer":0,
			"byteLength":912,
			"byteOffset":235008,
			"target":34962
		},
		{
			"buffer":0,
			"byteLength":608,
			"byteOffset":235920,
			"target":34962
		},
		{
			"buffer":0,
			"byteLength":1500,
			"byteOffset":236528,
			"target":34962
		},
		{
			"buffer":0,
			"byteLength":1500,
			"byteOffset":238028,
			"target":34962
		},
		{
			"buffer":0,
			"byteLength":1000,
			"byteOffset":239528,
			"target":34962
		},
		{
			"buffer":0,
			"byteLength":1152,
			"byteOffset":240528,
			"target":34963
		},
		{
			"buffer":0,
			"byteLength":3336,
			"byteOffset":241680,
			"target":34962
		},
		{
			"buffer":0,
			"byteLength":3336,
			"byteOffset":245016,
			"target":34962
		},
		{
			"buffer":0,
			"byteLength":2224,
			"byteOffset":248352,
			"target":34962
		},
		{
			"buffer":0,
			"byteLength":1536,
			"byteOffset":250576,
			"target":34963
		},
		{
			"buffer":0,
			"byteLength":48,
			"byteOffset":252112,
			"target":34962
		},
		{
			"buffer":0,
			"byteLength":48,
			"byteOffset":252160,
			"target":34962
		},
		{
			"buffer":0,
			"byteLength":32,
			"byteOffset":252208,
			"target":34962
		},
		{
			"buffer":0,
			"byteLength":12,
			"byteOffset":252240,
			"target":34963
		},
		{
			"buffer":0,
			"byteLength":48,
			"byteOffset":252252,
			"target":34962
		},
		{
			"buffer":0,
			"byteLength":48,
			"byteOffset":252300,
			"target":34962
		},
		{
			"buffer":0,
			"byteLength":32,
			"byteOffset":252348,
			"target":34962
		}
	],
	"buffers":[
		{
			"byteLength":252380,
			"uri":"Full.bin"
		}
	]
}
